<svg width="42" height="18" viewBox="0 0 42 18" fill="none" xmlns="http://www.w3.org/2000/svg">
<mask id="mask0_1544_23005" style="mask-type:alpha" maskUnits="userSpaceOnUse" x="0" y="0" width="42" height="18">
<path d="M42 0H0V18H42V0Z" fill="white"/>
</mask>
<g mask="url(#mask0_1544_23005)">
<path fill-rule="evenodd" clip-rule="evenodd" d="M0 18H42V0H0V18Z" fill="#016FD0"/>
<path fill-rule="evenodd" clip-rule="evenodd" d="M3.03026 3.13843L1.00781 7.84065H2.32448L2.69759 6.89909H4.86692L5.23826 7.84065H6.58403L4.56337 3.13843H3.03026ZM3.77848 4.23287L4.43959 5.87821H3.11515L3.77848 4.23287Z" fill="white"/>
<path fill-rule="evenodd" clip-rule="evenodd" d="M6.72266 7.83976V3.13776L8.59377 3.14465L9.68199 6.17642L10.7442 3.13776H12.6004V7.83998H11.4249V4.37509L10.1787 7.83998H9.14777L7.89821 4.37509V7.83998L6.72266 7.83976Z" fill="white"/>
<path fill-rule="evenodd" clip-rule="evenodd" d="M13.4062 7.83976V3.13776H17.2422V4.18953H14.594V4.99376H17.1802V5.98376H14.594V6.81909H17.2422V7.83976H13.4062Z" fill="white"/>
<path fill-rule="evenodd" clip-rule="evenodd" d="M17.9219 3.13843V7.84065H19.0974V6.17021H19.5925L21.0019 7.84065H22.4385L20.8919 6.10821C21.5265 6.05465 22.1814 5.50976 22.1814 4.66398C22.1814 3.67443 21.4048 3.13843 20.5379 3.13843H17.9219ZM19.0974 4.19021H20.4412C20.7637 4.19021 20.9981 4.44243 20.9981 4.68532C20.9981 4.99754 20.6943 5.18021 20.4588 5.18021H19.0974V4.19021Z" fill="white"/>
<path fill-rule="evenodd" clip-rule="evenodd" d="M22.6602 7.83998H23.8606V3.13776H22.6602V7.83998Z" fill="white"/>
<path fill-rule="evenodd" clip-rule="evenodd" d="M26.7074 7.83976H26.4485C25.1947 7.83976 24.4336 6.8522 24.4336 5.50798C24.4336 4.13065 25.1863 3.13776 26.7694 3.13776H28.0687V4.25131H26.7218C26.0792 4.25131 25.6247 4.75287 25.6247 5.51976C25.6247 6.43042 26.1445 6.81287 26.8932 6.81287H27.2025L26.7074 7.83976Z" fill="white"/>
<path fill-rule="evenodd" clip-rule="evenodd" d="M29.2646 3.13843L27.2422 7.84065H28.5589L28.9322 6.89909H31.1015L31.4729 7.84065H32.8184L30.798 3.13843H29.2646ZM30.0129 4.23287L30.6742 5.87821H29.3497L30.0129 4.23287Z" fill="white"/>
<path fill-rule="evenodd" clip-rule="evenodd" d="M32.957 7.83976V3.13776H34.4515L36.3599 6.09198V3.13776H37.5355V7.83976H36.0893L34.1326 4.8082V7.83976H32.957Z" fill="white"/>
<path fill-rule="evenodd" clip-rule="evenodd" d="M9.57031 16.0689V11.3665H13.4065V12.4185H10.7583V13.2227H13.3445V14.2127H10.7583V15.048H13.4065V16.0689H9.57031Z" fill="white"/>
<path fill-rule="evenodd" clip-rule="evenodd" d="M28.3672 16.0689V11.3665H32.2032V12.4185H29.5552V13.2227H32.129V14.2127H29.5552V15.048H32.2032V16.0689H28.3672Z" fill="white"/>
<path fill-rule="evenodd" clip-rule="evenodd" d="M13.5559 16.0689L15.4237 13.7466L13.5117 11.3666H14.9926L16.1315 12.838L17.2742 11.3666H18.6973L16.8102 13.7177L18.6813 16.0689H17.2004L16.0948 14.6206L15.0157 16.0689H13.5559Z" fill="white"/>
<path fill-rule="evenodd" clip-rule="evenodd" d="M18.8203 11.3673V16.0698H20.0268V14.5846H21.2641C22.3112 14.5846 23.1048 14.0293 23.1048 12.9491C23.1048 12.054 22.4823 11.3673 21.417 11.3673H18.8203ZM20.0268 12.4309H21.3299C21.6681 12.4309 21.9099 12.638 21.9099 12.9722C21.9099 13.286 21.6692 13.5135 21.3261 13.5135H20.0268V12.4309Z" fill="white"/>
<path fill-rule="evenodd" clip-rule="evenodd" d="M23.6133 11.3665V16.0689H24.7888V14.3982H25.2839L26.6933 16.0689H28.1299L26.5831 14.3365C27.2179 14.2829 27.8728 13.738 27.8728 12.892C27.8728 11.9027 27.0962 11.3667 26.2293 11.3667L23.6133 11.3665ZM24.7888 12.4185H26.1326C26.4551 12.4185 26.6895 12.6707 26.6895 12.9133C26.6895 13.2258 26.3857 13.4085 26.1499 13.4085H24.7888V12.4185Z" fill="white"/>
<path fill-rule="evenodd" clip-rule="evenodd" d="M32.7468 16.0689V15.048H35.0994C35.4477 15.048 35.5983 14.8597 35.5983 14.6535C35.5983 14.4557 35.4481 14.256 35.0994 14.256H34.0363C33.1123 14.256 32.5977 13.6929 32.5977 12.8477C32.5977 12.0937 33.069 11.3666 34.4421 11.3666H36.7314L36.2363 12.4246H34.2565C33.8781 12.4246 33.7614 12.6233 33.7614 12.8129C33.7614 13.0077 33.9054 13.2226 34.1945 13.2226H35.3083C36.3385 13.2226 36.7854 13.8071 36.7854 14.5724C36.7854 15.3951 36.2874 16.0689 35.2523 16.0689H32.7468Z" fill="white"/>
<path fill-rule="evenodd" clip-rule="evenodd" d="M37.0595 16.0689V15.048H39.3126C39.6606 15.048 39.8115 14.8597 39.8115 14.6535C39.8115 14.4557 39.661 14.256 39.3126 14.256H38.349C37.4248 14.256 36.9102 13.6929 36.9102 12.8477C36.9102 12.0937 37.3815 11.3666 38.7548 11.3666H40.9986L40.5037 12.4246H38.5693C38.1906 12.4246 38.0742 12.6233 38.0742 12.8129C38.0742 13.0077 38.2182 13.2226 38.5073 13.2226H39.5213C40.5515 13.2226 40.9986 13.8071 40.9986 14.5724C40.9986 15.3951 40.5004 16.0689 39.4653 16.0689H37.0595Z" fill="white"/>
</g>
</svg>