<svg width="42" height="12" viewBox="0 0 42 12" fill="none" xmlns="http://www.w3.org/2000/svg">
<mask id="mask0_1544_23030" style="mask-type:alpha" maskUnits="userSpaceOnUse" x="0" y="1" width="42" height="11">
<path d="M42 1H0V12H42V1Z" fill="white"/>
</mask>
<g mask="url(#mask0_1544_23030)">
<path d="M1.9234 3.18652H0V9.92424H1.9234C2.93755 9.92424 3.6836 9.67945 4.32473 9.14323C5.09409 8.50209 5.54871 7.54622 5.54871 6.55538C5.53705 4.5737 4.05662 3.18652 1.9234 3.18652ZM3.46211 8.24564C3.05412 8.61866 2.5179 8.78186 1.66694 8.78186H1.31724V4.3289H1.66694C2.5179 4.3289 3.03081 4.48045 3.46211 4.87678C3.91674 5.28477 4.18485 5.90259 4.18485 6.55538C4.18485 7.19652 3.91674 7.83765 3.46211 8.24564Z" fill="#231F20"/>
<path d="M7.46177 3.18652H6.14453V9.92424H7.46177V3.18652Z" fill="#231F20"/>
<path d="M10.6654 5.77436C9.87268 5.48294 9.6512 5.28477 9.6512 4.9234C9.6512 4.50375 10.0592 4.17736 10.6304 4.17736C11.0267 4.17736 11.3415 4.34055 11.6912 4.72523L12.3789 3.82765C11.8194 3.33806 11.1433 3.0816 10.3972 3.0816C9.20823 3.0816 8.29899 3.90925 8.29899 5.005C8.29899 5.93756 8.71864 6.40384 9.95428 6.8468C10.4672 7.03331 10.7353 7.14988 10.8635 7.23148C11.1316 7.40633 11.2599 7.65113 11.2599 7.9309C11.2599 8.47877 10.8285 8.87511 10.2457 8.87511C9.61622 8.87511 9.11498 8.56037 8.8119 7.97752L7.96094 8.79351C8.5671 9.67944 9.28983 10.0758 10.2923 10.0758C11.6562 10.0758 12.6121 9.16653 12.6121 7.86095C12.6121 6.80017 12.1691 6.32224 10.6654 5.77436Z" fill="#231F20"/>
<path d="M13.0195 6.55537C13.0195 8.53705 14.5699 10.0641 16.5749 10.0641C17.1344 10.0641 17.624 9.94755 18.2185 9.66778V8.1174C17.694 8.64197 17.2277 8.85179 16.6332 8.85179C15.316 8.85179 14.3717 7.89592 14.3717 6.53206C14.3717 5.23814 15.3393 4.22398 16.5749 4.22398C17.2044 4.22398 17.6707 4.44546 18.2185 4.98168V3.43131C17.6473 3.13988 17.1694 3.02332 16.5982 3.02332C14.6165 3.03497 13.0195 4.597 13.0195 6.55537Z" fill="#231F20"/>
<path d="M28.6313 7.70942L26.8361 3.18652H25.4023L28.27 10.0991H28.9694L31.8836 3.18652H30.4615L28.6313 7.70942Z" fill="#231F20"/>
<path d="M32.4766 9.92424H36.1951V8.78186H33.7821V6.96338H36.1019V5.82099H33.7821V4.3289H36.1951V3.18652H32.4766V9.92424Z" fill="#231F20"/>
<path d="M41.395 5.17986C41.395 3.92091 40.5324 3.18652 39.017 3.18652H37.0703V9.92424H38.3875V7.21983H38.5624L40.3809 9.92424H42.0012L39.8796 7.0916C40.8472 6.88178 41.395 6.20567 41.395 5.17986ZM38.7606 6.28727H38.3759V4.24731H38.7839C39.5999 4.24731 40.0428 4.58536 40.0428 5.2498C40.0428 5.92591 39.5999 6.28727 38.7606 6.28727Z" fill="#231F20"/>
<path d="M22.231 10.1574C24.2075 10.1574 25.8097 8.55514 25.8097 6.57868C25.8097 4.60223 24.2075 3 22.231 3C20.2546 3 18.6523 4.60223 18.6523 6.57868C18.6523 8.55514 20.2546 10.1574 22.231 10.1574Z" fill="url(#paint0_linear_1544_23030)"/>
<path opacity="0.65" d="M22.231 10.1574C24.2075 10.1574 25.8097 8.55514 25.8097 6.57868C25.8097 4.60223 24.2075 3 22.231 3C20.2546 3 18.6523 4.60223 18.6523 6.57868C18.6523 8.55514 20.2546 10.1574 22.231 10.1574Z" fill="url(#paint1_linear_1544_23030)"/>
</g>
<defs>
<linearGradient id="paint0_linear_1544_23030" x1="24.065" y1="9.45016" x2="21.5851" y2="5.5673" gradientUnits="userSpaceOnUse">
<stop stop-color="#F89F20"/>
<stop offset="0.2502" stop-color="#F79A20"/>
<stop offset="0.5331" stop-color="#F68D20"/>
<stop offset="0.6196" stop-color="#F58720"/>
<stop offset="0.7232" stop-color="#F48120"/>
<stop offset="1" stop-color="#F37521"/>
</linearGradient>
<linearGradient id="paint1_linear_1544_23030" x1="23.6731" y1="9.3972" x2="20.0485" y2="2.31287" gradientUnits="userSpaceOnUse">
<stop stop-color="#F58720"/>
<stop offset="0.3587" stop-color="#E16F27"/>
<stop offset="0.703" stop-color="#D4602C"/>
<stop offset="0.9816" stop-color="#D05B2E"/>
</linearGradient>
</defs>
</svg>