<svg width="42" height="32" viewBox="0 0 42 32" fill="none" xmlns="http://www.w3.org/2000/svg">
<mask id="mask0_1544_22992" style="mask-type:alpha" maskUnits="userSpaceOnUse" x="1" y="0" width="40" height="32">
<path d="M41 0H1V32H41V0Z" fill="white"/>
</mask>
<g mask="url(#mask0_1544_22992)">
<path d="M9.18509 30.4934V28.6307C9.18509 27.9166 8.72064 27.451 7.92445 27.451C7.52636 27.451 7.09509 27.5751 6.79652 27.9787C6.5643 27.6372 6.23255 27.451 5.73493 27.451C5.40318 27.451 5.07144 27.5441 4.80604 27.8856V27.5131H4.10938V30.4934H4.80604V28.848C4.80604 28.3202 5.10461 28.0719 5.56906 28.0719C6.0335 28.0719 6.26572 28.3513 6.26572 28.848V30.4934H6.96239V28.848C6.96239 28.3202 7.29414 28.0719 7.72541 28.0719C8.18985 28.0719 8.42207 28.3513 8.42207 28.848V30.4934H9.18509ZM19.5024 27.5131H18.3745V26.6127H17.6778V27.5131H17.0475V28.1029H17.6778V29.4689C17.6778 30.1519 17.9764 30.5555 18.7726 30.5555C19.0711 30.5555 19.4029 30.4624 19.6351 30.3382L19.436 29.7794C19.237 29.9036 19.0048 29.9346 18.8389 29.9346C18.5072 29.9346 18.3745 29.7483 18.3745 29.4379V28.1029H19.5024V27.5131ZM25.4075 27.451C25.0094 27.451 24.744 27.6372 24.5781 27.8856V27.5131H23.8814V30.4934H24.5781V28.817C24.5781 28.3202 24.8103 28.0408 25.2416 28.0408C25.3743 28.0408 25.5402 28.0719 25.6729 28.1029L25.8719 27.482C25.7392 27.451 25.5402 27.451 25.4075 27.451ZM16.4835 27.7614C16.1518 27.5441 15.6873 27.451 15.1897 27.451C14.3935 27.451 13.8627 27.8235 13.8627 28.4134C13.8627 28.9101 14.2608 29.1895 14.9575 29.2827L15.2892 29.3137C15.6541 29.3758 15.8532 29.4689 15.8532 29.6242C15.8532 29.8415 15.5878 29.9967 15.1233 29.9967C14.6589 29.9967 14.294 29.8415 14.0618 29.6863L13.73 30.183C14.0949 30.4314 14.5925 30.5555 15.0902 30.5555C16.0191 30.5555 16.5499 30.1519 16.5499 29.5931C16.5499 29.0653 16.1186 28.7859 15.4551 28.6928L15.1233 28.6617C14.8248 28.6307 14.5926 28.5686 14.5926 28.3823C14.5926 28.165 14.8248 28.0408 15.1897 28.0408C15.5878 28.0408 15.9859 28.1961 16.1849 28.2892L16.4835 27.7614ZM34.9949 27.451C34.5968 27.451 34.3314 27.6372 34.1656 27.8856V27.5131H33.4689V30.4934H34.1656V28.817C34.1656 28.3202 34.3978 28.0408 34.8291 28.0408C34.9618 28.0408 35.1276 28.0719 35.2603 28.1029L35.4594 27.482C35.3267 27.451 35.1276 27.451 34.9949 27.451ZM26.1041 29.0032C26.1041 29.9036 26.7676 30.5555 27.796 30.5555C28.2605 30.5555 28.5922 30.4624 28.924 30.214L28.5922 29.6863C28.3268 29.8725 28.0614 29.9657 27.7629 29.9657C27.1989 29.9657 26.8008 29.5931 26.8008 29.0032C26.8008 28.4444 27.1989 28.0719 27.7629 28.0408C28.0614 28.0408 28.3268 28.134 28.5922 28.3202L28.924 27.7925C28.5922 27.5441 28.2605 27.451 27.796 27.451C26.7676 27.451 26.1041 28.1029 26.1041 29.0032ZM32.54 29.0032V27.5131H31.8433V27.8856C31.6111 27.6062 31.2794 27.451 30.8481 27.451C29.9524 27.451 29.2557 28.1029 29.2557 29.0032C29.2557 29.9036 29.9524 30.5555 30.8481 30.5555C31.3126 30.5555 31.6443 30.4003 31.8433 30.1209V30.4934H32.54V29.0032ZM29.9856 29.0032C29.9856 28.4755 30.3505 28.0408 30.9476 28.0408C31.5116 28.0408 31.9097 28.4444 31.9097 29.0032C31.9097 29.531 31.5116 29.9657 30.9476 29.9657C30.3505 29.9346 29.9856 29.531 29.9856 29.0032ZM21.6587 27.451C20.7299 27.451 20.0664 28.0719 20.0664 29.0032C20.0664 29.9346 20.7299 30.5555 21.6919 30.5555C22.1564 30.5555 22.6208 30.4314 22.9857 30.1519L22.654 29.6863C22.3886 29.8725 22.0568 29.9967 21.7251 29.9967C21.2938 29.9967 20.8625 29.8104 20.763 29.2827H23.1184V29.0343C23.1516 28.0719 22.5545 27.451 21.6587 27.451ZM21.6587 28.0098C22.09 28.0098 22.3886 28.2581 22.4549 28.7238H20.7962C20.8626 28.3202 21.1611 28.0098 21.6587 28.0098ZM38.9427 29.0032V26.3333H38.246V27.8856C38.0138 27.6062 37.6821 27.451 37.2508 27.451C36.3551 27.451 35.6584 28.1029 35.6584 29.0032C35.6584 29.9036 36.3551 30.5555 37.2508 30.5555C37.7152 30.5555 38.047 30.4003 38.246 30.1209V30.4934H38.9427V29.0032ZM36.3883 29.0032C36.3883 28.4755 36.7532 28.0408 37.3503 28.0408C37.9143 28.0408 38.3124 28.4444 38.3124 29.0032C38.3124 29.531 37.9143 29.9657 37.3503 29.9657C36.7532 29.9346 36.3883 29.531 36.3883 29.0032ZM13.0997 29.0032V27.5131H12.403V27.8856C12.1708 27.6062 11.8391 27.451 11.4078 27.451C10.5121 27.451 9.81541 28.1029 9.81541 29.0032C9.81541 29.9036 10.5121 30.5555 11.4078 30.5555C11.8722 30.5555 12.204 30.4003 12.403 30.1209V30.4934H13.0997V29.0032ZM10.5121 29.0032C10.5121 28.4755 10.877 28.0408 11.4741 28.0408C12.0381 28.0408 12.4362 28.4444 12.4362 29.0032C12.4362 29.531 12.0381 29.9657 11.4741 29.9657C10.877 29.9346 10.5121 29.531 10.5121 29.0032Z" fill="black"/>
<path d="M15.7227 3.63947L26.2782 3.53333V22.6389H15.7227V3.63947Z" fill="#FF5F00"/>
<path d="M16.5275 13.1389C16.5275 9.26119 18.2904 5.82184 21 3.59637C19.0086 1.97786 16.4948 1 13.7526 1C7.25601 1 2 6.42878 2 13.1389C2 19.849 7.25601 25.2778 13.7526 25.2778C16.4948 25.2778 19.0086 24.2999 21 22.6814C18.2904 20.4897 16.5275 17.0166 16.5275 13.1389Z" fill="#EB001B"/>
<path d="M40 13.1389C40 19.849 34.744 25.2778 28.2474 25.2778C25.5052 25.2778 22.9914 24.2999 21 22.6814C23.7423 20.4559 25.4725 17.0166 25.4725 13.1389C25.4725 9.26119 23.7096 5.82184 21 3.59637C22.9914 1.97786 25.5052 1 28.2474 1C34.744 1 40 6.4625 40 13.1389Z" fill="#F79E1B"/>
</g>
</svg>