<svg width="42" height="16" viewBox="0 0 42 16" fill="none" xmlns="http://www.w3.org/2000/svg">
<mask id="mask0_1544_22982" style="mask-type:alpha" maskUnits="userSpaceOnUse" x="0" y="1" width="42" height="14">
<path d="M42 1H0V15H42V1Z" fill="white"/>
</mask>
<g mask="url(#mask0_1544_22982)">
<path d="M21.7214 5.37166C21.6974 7.27647 23.4051 8.3395 24.6915 8.97147C26.0132 9.61996 26.4571 10.0358 26.4521 10.6156C26.442 11.5032 25.3978 11.8948 24.4203 11.9101C22.7152 11.9368 21.7239 11.4459 20.9357 11.0746L20.3215 13.9725C21.1122 14.34 22.5765 14.6605 24.0949 14.6744C27.6591 14.6744 29.991 12.9006 30.0036 10.1502C30.0175 6.65976 25.2149 6.46648 25.2477 4.90627C25.259 4.43325 25.7067 3.92844 26.6879 3.80001C27.1735 3.73516 28.5141 3.68557 30.0339 4.39129L30.6304 1.58748C29.8132 1.28739 28.7626 1.00002 27.4547 1.00002C24.1 1.00002 21.7403 2.79801 21.7214 5.37166ZM36.3625 1.24162C35.7117 1.24162 35.1631 1.62436 34.9184 2.21182L29.827 14.4684H33.3886L34.0974 12.4937L38.4498 12.4937L38.8609 14.4684H42L39.2607 1.24162H36.3625ZM36.8607 4.81472L37.8885 9.78145H35.0736L36.8607 4.81472ZM17.4031 1.24162L14.5957 14.4684H17.9895L20.7957 1.24162H17.4031ZM12.3823 1.24162L8.84974 10.2443L7.42082 2.58948C7.25308 1.73499 6.59096 1.24162 5.85568 1.24162H0.0807159L0 1.62563C1.18551 1.88503 2.53246 2.30337 3.34845 2.75097C3.84788 3.02435 3.99039 3.26341 4.15435 3.91318L6.86085 14.4684L10.4477 14.4684L15.9464 1.24162H12.3823Z" fill="url(#paint0_linear_1544_22982)"/>
</g>
<defs>
<linearGradient id="paint0_linear_1544_22982" x1="19.3092" y1="15.0663" x2="19.7081" y2="0.79364" gradientUnits="userSpaceOnUse">
<stop stop-color="#222357"/>
<stop offset="1" stop-color="#254AA5"/>
</linearGradient>
</defs>
</svg>