<svg xmlns="http://www.w3.org/2000/svg" width="48" height="48" viewBox="0 0 48 48" fill="none">
  <path d="M23.7791 47.5582C36.912 47.5582 47.5582 36.912 47.5582 23.7791C47.5582 10.6463 36.912 0 23.7791 0C10.6463 0 0 10.6463 0 23.7791C0 36.912 10.6463 47.5582 23.7791 47.5582Z" fill="#1CA700"></path>
  <path d="M35.9365 18.6441C35.8779 17.2626 35.663 16.3129 35.3553 15.4899C35.0377 14.6163 34.5493 13.8342 33.9093 13.184C33.284 12.5237 32.5269 12.0107 31.6965 11.6857C30.9004 11.3657 29.9918 11.1423 28.6632 11.0813C27.3247 11.0153 26.8997 11 23.5049 11C20.11 11 19.6851 11.0153 18.3515 11.0762C17.0229 11.1371 16.1095 11.3607 15.3182 11.6805C14.4779 12.0107 13.7257 12.5186 13.1004 13.184C12.4654 13.8342 11.9722 14.6215 11.6594 15.4849C11.3517 16.3129 11.1368 17.2575 11.0782 18.6389C11.0147 20.0307 11 20.4726 11 24.0026C11 27.5326 11.0147 27.9744 11.0733 29.3611C11.1318 30.7425 11.3469 31.6923 11.6547 32.5153C11.9722 33.3889 12.4654 34.171 13.1004 34.8211C13.7257 35.4814 14.4828 35.9945 15.3132 36.3195C16.1095 36.6395 17.0179 36.8629 18.3467 36.9238C19.6801 36.9849 20.1052 37 23.5001 37C26.895 37 27.3199 36.9849 28.6535 36.9238C29.9821 36.8629 30.8955 36.6395 31.6868 36.3195C33.3672 35.6439 34.6958 34.2624 35.3455 32.5153C35.6531 31.6873 35.8682 30.7425 35.9267 29.3611C35.9853 27.9744 36 27.5326 36 24.0026C36 20.4726 35.995 20.0307 35.9365 18.6441ZM33.6847 29.2595C33.6309 30.5293 33.4258 31.2149 33.2548 31.6721C32.8347 32.8048 31.9701 33.7037 30.8808 34.1406C30.4412 34.3184 29.777 34.5317 28.5605 34.5874C27.2417 34.6485 26.8461 34.6636 23.5098 34.6636C20.1735 34.6636 19.773 34.6485 18.4589 34.5874C17.2377 34.5317 16.5783 34.3184 16.1387 34.1406C15.5966 33.9323 15.1032 33.6021 14.7027 33.1704C14.2875 32.7488 13.9699 32.2409 13.7696 31.6772C13.5986 31.2201 13.3935 30.5293 13.3399 29.2646C13.2811 27.8933 13.2666 27.4818 13.2666 24.0127C13.2666 20.5436 13.2811 20.1272 13.3399 18.761C13.3935 17.4912 13.5986 16.8055 13.7696 16.3484C13.9699 15.7845 14.2875 15.2716 14.7076 14.855C15.1129 14.4233 15.6014 14.0931 16.1436 13.885C16.5833 13.7072 17.2477 13.4939 18.4639 13.438C19.7828 13.3771 20.1785 13.3618 23.5146 13.3618C26.8559 13.3618 27.2514 13.3771 28.5655 13.438C29.7867 13.4939 30.4461 13.7072 30.8857 13.885C31.4278 14.0931 31.9213 14.4233 32.3218 14.855C32.737 15.2766 33.0545 15.7845 33.2548 16.3484C33.4258 16.8055 33.6309 17.4961 33.6847 18.761C33.7433 20.1323 33.758 20.5436 33.758 24.0127C33.758 27.4818 33.7433 27.8881 33.6847 29.2595Z" fill="white"></path>
  <path d="M23.5049 17.3235C19.9587 17.3235 17.0815 20.3151 17.0815 24.0026C17.0815 27.6901 19.9587 30.6816 23.5049 30.6816C27.0512 30.6816 29.9283 27.6901 29.9283 24.0026C29.9283 20.3151 27.0512 17.3235 23.5049 17.3235ZM23.5049 28.3351C21.2043 28.3351 19.3382 26.3949 19.3382 24.0026C19.3382 21.6102 21.2043 19.67 23.5049 19.67C25.8056 19.67 27.6716 21.6102 27.6716 24.0026C27.6716 26.3949 25.8056 28.3351 23.5049 28.3351Z" fill="white"></path>
  <path d="M31.682 17.0594C31.682 17.9205 31.0105 18.6187 30.1822 18.6187C29.3541 18.6187 28.6827 17.9205 28.6827 17.0594C28.6827 16.1982 29.3541 15.5002 30.1822 15.5002C31.0105 15.5002 31.682 16.1982 31.682 17.0594Z" fill="white"></path>
</svg>