<svg xmlns="http://www.w3.org/2000/svg" viewBox="0 0 48 48" fill="none">
  <path d="M23.7791 47.5582C36.912 47.5582 47.5582 36.912 47.5582 23.7791C47.5582 10.6463 36.912 0 23.7791 0C10.6463 0 0 10.6463 0 23.7791C0 36.912 10.6463 47.5582 23.7791 47.5582Z" fill="#1CA700" style="fill: rgb(28, 167, 0);"></path>
  <path d="M36.9943 34L37 33.999V25.5638C37 21.4372 36.1116 18.2584 31.2874 18.2584C28.9682 18.2584 27.4119 19.5311 26.7765 20.7376H26.7094V18.6437H22.1353V33.999H26.8982V26.3956C26.8982 24.3937 27.2777 22.4578 29.7569 22.4578C32.1997 22.4578 32.2361 24.7425 32.2361 26.524V34H36.9943Z" fill="white" style="fill: white;"></path>
  <path d="M14.3795 18.6446H19.1482V34H14.3795V18.6446Z" fill="white" style="fill: white;"></path>
  <path d="M16.7619 11C15.2372 11 14 12.2372 14 13.7619C14 15.2866 15.2372 16.5497 16.7619 16.5497C18.2866 16.5497 19.5238 15.2866 19.5238 13.7619C19.5229 12.2372 18.2857 11 16.7619 11Z" fill="white" style="fill: white;"></path>
</svg>