<svg xmlns="http://www.w3.org/2000/svg" viewBox="0 0 48 48" fill="none" class="">
  <path d="M24.1932 47.5582C37.326 47.5582 47.9723 36.912 47.9723 23.7791C47.9723 10.6463 37.326 0 24.1932 0C11.0603 0 0.414062 10.6463 0.414062 23.7791C0.414062 36.912 11.0603 47.5582 24.1932 47.5582Z" fill="#1CA700" class="" style="fill: rgb(28, 167, 0);"></path>
  <path d="M26.1011 38V25.6849H30.2331L30.853 20.8841H26.1011V17.8195C26.1011 16.43 26.4854 15.483 28.4802 15.483L31.0203 15.482V11.188C30.581 11.1309 29.0732 11 27.3182 11C23.6535 11 21.1445 13.2369 21.1445 17.344V20.8841H17V25.6849H21.1445V38H26.1011Z" fill="white" style="fill: white;"></path>
</svg>