<svg xmlns="http://www.w3.org/2000/svg" width="58" height="58" viewBox="0 0 58 58" fill="none">
  <path d="M30.5449 9.17751L34.3204 19.4005C36.0506 24.0854 41.2533 26.4817 45.9397 24.7511C47.1948 24.2875 48.2847 23.5753 49.176 22.6909L49.1756 22.6895C51.3318 20.5496 52.3207 17.4005 51.6408 14.3262C51.9685 14.0548 52.2424 13.7082 52.4331 13.2943C53.1078 11.8318 52.4678 10.0988 51.0045 9.42593C49.5416 8.74987 47.8071 9.39036 47.1334 10.8555L44.9119 7.03297L43.3987 4.43066L30.5449 9.17751Z" fill="#FCD2BE"></path>
  <path d="M49.1747 22.6888C51.3309 20.5489 52.3198 17.3998 51.6399 14.3254C51.9676 14.0541 52.2416 13.7075 52.4322 13.2935C53.1069 11.8311 52.4669 10.0981 51.0036 9.42519C49.5407 8.74912 47.8062 9.38962 47.1326 10.8548L44.911 7.03223L42.8447 8.31072C44.3838 9.58752 50.5395 14.0492 49.1747 22.6888Z" fill="#FAB998"></path>
  <path d="M48.4994 5.71598L49.7701 9.15646C48.6717 9.16031 47.6234 9.7897 47.1331 10.8542L46.3749 8.80121C45.8121 9.00908 45.2982 9.10843 44.827 9.1244C42.0266 9.22918 40.8326 6.43215 40.8326 6.43215C39.1253 10.1365 31.5751 11.9662 31.5751 11.9662C30.8693 10.0549 31.005 8.03837 31.795 6.32328C32.5841 4.61001 34.0285 3.19625 35.9395 2.49028L39.0236 1.35124C42.8447 -0.0596873 47.0877 1.89352 48.4994 5.71598Z" fill="#50515B"></path>
  <path d="M48.4999 5.71593L49.7705 9.1564C48.6722 9.16026 47.6238 9.78965 47.1336 10.8542L46.3754 8.80115C45.8126 9.00902 45.2986 9.10837 44.8275 9.12435C44.092 4.86507 40.5453 0.789532 37.1709 2.03574L39.0241 1.3513C42.8452 -0.059741 47.0881 1.89346 48.4999 5.71593Z" fill="#12191F"></path>
  <path d="M17.4878 26.9277L20.7376 37.3297C22.2269 42.0967 19.5687 47.1706 14.8003 48.6605C13.5231 49.0595 12.225 49.1606 10.9793 49.0042L10.9788 49.0027C7.96473 48.6239 5.25899 46.7332 3.92091 43.8832C3.49565 43.8683 3.06722 43.7609 2.66348 43.5496C1.23636 42.803 0.685474 41.0396 1.4337 39.6135C2.17977 38.185 3.94459 37.6336 5.3725 38.3829L4.79873 33.9991L4.4087 31.0141L17.4878 26.9277Z" fill="#FCD2BE"></path>
  <path d="M10.9788 49.0033C7.96473 48.6245 5.25899 46.7339 3.92091 43.8838C3.49565 43.869 3.06722 43.7616 2.66348 43.5502C1.23636 42.8037 0.685474 41.0402 1.4337 39.6141C2.17977 38.1856 3.94459 37.6343 5.3725 38.3835L4.79873 33.9997L7.21582 33.751C6.77629 35.7017 4.62405 42.9932 10.9788 49.0033Z" fill="#FAB998"></path>
  <path d="M20.2086 21.458C21.5032 25.6015 19.193 30.009 15.0507 31.3031L7.21562 33.751L7.43312 34.4473C7.95059 36.1037 7.02667 37.865 5.37037 38.3826C4.31765 37.8311 3.0805 37.987 2.20551 38.6794L1.24817 35.6155C-0.0458487 31.4735 2.26374 27.0645 6.406 25.7704L20.2086 21.458Z" fill="#F9CE55"></path>
  <path d="M12.5283 23.8564L6.40598 25.7693C2.26395 27.0633 -0.0458684 31.4723 1.24815 35.6144L2.20549 38.6783C3.08059 37.986 4.31763 37.83 5.37036 38.3815C7.02676 37.8641 7.95057 36.1026 7.4331 34.4462L7.2156 33.7499L7.37057 33.7014C6.07644 29.5594 8.38625 25.1506 12.5283 23.8564Z" fill="#E2A11E"></path>
  <path d="M6.04711 48.122C6.86319 49.2378 7.99363 50.367 9.36298 51.3682C10.7328 52.3697 12.1511 53.1041 13.4628 53.5433L14.8172 51.6908C15.2 51.1671 15.935 51.0529 16.4587 51.4359L18.9329 53.2449C19.4566 53.6279 19.5708 54.3628 19.1878 54.8865L18.8727 55.3173C16.8789 58.0442 11.6456 57.6107 7.18389 54.3485C2.72218 51.0865 0.721739 46.2311 2.7155 43.5041L3.03053 43.0732C3.41354 42.5495 4.1484 42.4354 4.6721 42.8184L7.14662 44.6276C7.67032 45.0106 7.78451 45.7454 7.40151 46.2691L6.04711 48.122Z" fill="#EF4A6E"></path>
  <path d="M52.8756 17.4806C53.0876 18.8468 53.0866 20.4444 52.8263 22.1207C52.566 23.7975 52.0822 25.3198 51.4653 26.5577L49.1976 26.2055C48.5566 26.106 47.9562 26.5449 47.8565 27.186L47.3862 30.2147C47.2866 30.8558 47.7255 31.4561 48.3666 31.5558L48.8939 31.6376C52.232 32.156 55.626 28.1489 56.4742 22.6874C57.3223 17.2258 55.3036 12.378 51.9656 11.8595L51.4382 11.7778C50.7972 11.6782 50.1968 12.1171 50.0971 12.7582L49.6268 15.7874C49.5272 16.4284 49.9661 17.0288 50.6072 17.1285L52.8756 17.4806Z" fill="#EF4A6E"></path>
  <path d="M24.1314 12.9956V5.94748C24.1314 4.41353 22.8878 3.16992 21.3539 3.16992H5.884C4.35005 3.16992 3.10645 4.41353 3.10645 5.94748V14.5278C3.10645 16.0617 4.35005 17.3053 5.884 17.3053H24.1315H28.8829L24.1314 12.9956Z" fill="#00C7A9"></path>
  <path d="M32.4457 44.7123V37.6643C32.4457 36.1303 33.6893 34.8867 35.2234 34.8867H50.6932C52.2272 34.8867 53.4708 36.1303 53.4708 37.6643V46.2446C53.4708 47.7785 52.2272 49.0222 50.6932 49.0222H32.4457H27.6943L32.4457 44.7123Z" fill="#F9CE55"></path>
  <path d="M40.8303 15.6341C40.9327 15.6341 41.0371 15.6163 41.1389 15.5787C41.6004 15.4082 41.8364 14.8959 41.666 14.4343L41.1477 13.0309C40.9773 12.5692 40.4654 12.3332 40.0034 12.5037C39.5419 12.6741 39.3059 13.1864 39.4763 13.648L39.9945 15.0515C40.1273 15.4114 40.4678 15.6341 40.8303 15.6341Z" fill="#12191F"></path>
  <path d="M37.181 16.9818C37.2836 16.9818 37.3879 16.964 37.4896 16.9263C37.9512 16.7558 38.1871 16.2434 38.0167 15.7819L37.4983 14.3785C37.3278 13.9169 36.8153 13.6808 36.354 13.8514C35.8923 14.0219 35.6565 14.5342 35.8269 14.9957L36.3452 16.3992C36.4781 16.7591 36.8186 16.9818 37.181 16.9818Z" fill="#12191F"></path>
  <path d="M42.7861 22.1152C42.9037 22.1152 43.0234 22.0916 43.1384 22.0421C44.9825 21.247 46.1138 19.8897 46.4097 18.1168C46.4908 17.6316 46.1629 17.1724 45.6777 17.0915C45.191 17.0101 44.7333 17.3382 44.6523 17.8235C44.4583 18.9858 43.7115 19.8546 42.4329 20.406C41.981 20.6009 41.7727 21.125 41.9677 21.5769C42.1128 21.9137 42.4409 22.1152 42.7861 22.1152Z" fill="#12191F"></path>
  <path d="M33.5579 14.7622C33.3874 14.3007 32.8754 14.0646 32.4135 14.2351C31.9519 14.4056 31.7161 14.918 31.8864 15.3795L33.485 19.7075C34.4042 22.197 36.2383 24.1795 38.6489 25.2899C39.9734 25.8998 41.3844 26.2065 42.8003 26.2065C43.9614 26.2065 45.1259 26.0002 46.2476 25.5859C48.6012 24.7167 50.5233 23.0072 51.6599 20.7724C51.8829 20.3338 51.7082 19.7975 51.2697 19.5744C50.8311 19.3514 50.2948 19.526 50.0718 19.9647C49.1389 21.7985 47.5617 23.2012 45.6301 23.9145C41.4126 25.472 36.7137 23.3079 35.1561 19.0902L33.5579 14.7622Z" fill="#12191F"></path>
  <path d="M31.5753 12.8577C31.6448 12.8577 31.7153 12.8496 31.7856 12.8326C32.0746 12.7625 38.1493 11.2574 40.8139 8.08699C41.7961 9.2957 43.4802 10.4102 45.8281 9.891L46.2979 11.1629C46.4227 11.501 46.7388 11.7305 47.0989 11.7445C47.4615 11.7594 47.7919 11.5543 47.9427 11.227C48.1693 10.7349 48.5738 10.3608 49.0818 10.1731C49.5893 9.98548 50.1395 10.0071 50.6309 10.2338C51.0776 10.4398 51.6068 10.2449 51.8131 9.79811C52.019 9.35132 51.8242 8.82207 51.3773 8.6159C50.4535 8.18973 49.4191 8.14918 48.4646 8.5016C48.0855 8.64161 47.7369 8.83703 47.4279 9.07956L47.2111 8.4931C47.0407 8.03159 46.5289 7.79551 46.0668 7.966C44.7719 8.44439 43.6899 8.29837 42.7596 7.51967C42.0142 6.89583 41.654 6.08666 41.6521 6.08235C41.5138 5.75826 41.1976 5.54631 40.8453 5.54132C40.8411 5.54121 40.837 5.54121 40.8327 5.54121C40.4855 5.54121 40.1693 5.7433 40.0235 6.05936C38.9185 8.45844 34.5457 10.1807 32.1779 10.8801C31.4462 7.74397 33.1512 4.47058 36.2488 3.32666L39.3331 2.18762C40.9584 1.58734 42.7199 1.6561 44.2935 2.38076C45.8671 3.10554 47.0641 4.39978 47.6644 6.02492C47.8348 6.48643 48.3463 6.72251 48.8088 6.55213C49.2703 6.38164 49.5062 5.86938 49.3359 5.40776C48.5709 3.33618 47.0448 1.68646 45.039 0.762647C43.0329 -0.161165 40.7874 -0.248732 38.7157 0.516486L35.6314 1.65553C31.355 3.23491 29.1606 7.99908 30.74 12.2755C30.8715 12.6317 31.2099 12.8577 31.5753 12.8577Z" fill="#12191F"></path>
  <path d="M12.7382 38.506C12.8263 38.506 12.9159 38.4929 13.0042 38.4652C13.4739 38.3185 13.7357 37.819 13.5889 37.3493L13.1428 35.9213C12.9961 35.4516 12.496 35.19 12.0268 35.3366C11.5572 35.4833 11.2954 35.9829 11.4422 36.4526L11.8883 37.8806C12.0073 38.2618 12.359 38.506 12.7382 38.506Z" fill="#12191F"></path>
  <path d="M16.7171 37.305C17.1868 37.1583 17.4486 36.6588 17.3018 36.1891L16.8557 34.7611C16.709 34.2914 16.2092 34.03 15.7397 34.1764C15.27 34.3231 15.0083 34.8227 15.1551 35.2924L15.6012 36.7204C15.7202 37.1016 16.072 37.3459 16.4512 37.3459C16.5393 37.3458 16.6288 37.3326 16.7171 37.305Z" fill="#12191F"></path>
  <path d="M10.3331 42.4338C9.99809 42.7941 10.0187 43.3579 10.3792 43.6929C11.3225 44.5697 12.4752 45.0156 13.769 45.0156C14.2808 45.0156 14.8148 44.9458 15.3664 44.8052C15.8432 44.6837 16.1313 44.1987 16.0098 43.7219C15.8884 43.2451 15.4036 42.9571 14.9265 43.0785C13.5773 43.4225 12.4553 43.1899 11.5922 42.3877C11.2318 42.0527 10.668 42.0735 10.3331 42.4338Z" fill="#12191F"></path>
  <path d="M20.0709 32.2094C19.9242 31.7396 19.4242 31.4781 18.955 31.6247C18.4853 31.7714 18.2235 32.271 18.3704 32.7407L19.8871 37.5956C20.5365 39.6741 20.3373 41.8814 19.3263 43.8108C18.3153 45.7403 16.6136 47.1607 14.5346 47.8103C12.8396 48.3398 11.0616 48.3079 9.39301 47.7182C8.92923 47.5542 8.42014 47.7974 8.25623 48.2613C8.09231 48.7252 8.33541 49.2341 8.7993 49.3981C9.87332 49.7775 10.9839 49.9676 12.0973 49.9676C13.0929 49.9676 14.0909 49.8155 15.0659 49.5109C17.5992 48.7194 19.6728 46.9888 20.9046 44.6377C22.1365 42.2867 22.3791 39.5969 21.5877 37.0642L20.0709 32.2094Z" fill="#12191F"></path>
  <path d="M1.49857 42.6871C1.96823 42.5404 2.23003 42.0408 2.08321 41.5712C1.9219 41.0547 1.97141 40.5067 2.22289 40.0273C2.35758 39.7703 2.53736 39.5522 2.75883 39.3777C3.38629 38.8814 4.24916 38.8003 4.96397 39.1748C5.19325 39.2931 5.45142 39.3026 5.67787 39.2197C6.68755 38.8929 7.51348 38.1964 8.00671 37.2548C8.48148 36.3487 8.59396 35.3184 8.329 34.3363L15.3169 32.1532C17.5475 31.4563 19.3733 29.9324 20.458 27.8622C21.5425 25.7921 21.7559 23.4233 21.059 21.1927C20.9123 20.723 20.4122 20.4616 19.9431 20.6081L6.14108 24.9204C1.53606 26.359 -1.03973 31.2759 0.398942 35.8808C0.545642 36.3505 1.04544 36.6119 1.51511 36.4655C1.98477 36.3188 2.24645 35.8192 2.09975 35.3493C0.954023 31.6821 3.00533 27.7667 6.67248 26.6209L19.5698 22.5915C20.1717 25.9894 18.1646 29.397 14.7855 30.4526L6.95025 32.9005C6.4807 33.0472 6.2189 33.5468 6.3656 34.0164L6.58299 34.7124C6.7622 35.2863 6.70737 35.8955 6.42836 36.4281C6.19851 36.8667 5.83929 37.2102 5.39897 37.4178C4.15015 36.9316 2.7202 37.136 1.65467 37.9794C1.23632 38.3089 0.896476 38.7198 0.644877 39.2C0.172266 40.1006 0.0791484 41.1314 0.382517 42.1025C0.501576 42.4837 0.853202 42.728 1.2327 42.728C1.3206 42.7279 1.41009 42.7148 1.49857 42.6871Z" fill="#12191F"></path>
  <path d="M19.459 52.5252L16.9849 50.7162C16.5394 50.3905 15.9933 50.2576 15.4488 50.3425C14.9035 50.4272 14.424 50.719 14.0983 51.1644L13.1397 52.4754C12.0553 52.0433 10.943 51.4191 9.88912 50.6485C8.83538 49.8781 7.90329 49.0078 7.16243 48.1057L8.12125 46.7944C8.79335 45.875 8.59227 44.58 7.67299 43.9078L5.19835 42.0986C4.27907 41.4264 2.98404 41.6274 2.31171 42.5469L1.99679 42.9776C0.842334 44.5565 0.738795 46.7182 1.70554 49.0643C2.611 51.2621 4.37004 53.3939 6.65844 55.067C8.94685 56.74 11.5117 57.7695 13.8805 57.966C14.1576 57.9889 14.4287 58.0003 14.6933 58.0003C16.8431 58.0003 18.5641 57.2482 19.5922 55.8423L19.9071 55.4116C20.2328 54.9662 20.3654 54.4207 20.2808 53.8755C20.1963 53.3304 19.9044 52.8508 19.459 52.5252ZM18.469 54.3601L18.154 54.7908C17.3798 55.8496 15.9141 56.3464 14.0278 56.1903C11.9812 56.0207 9.73744 55.111 7.71015 53.6286C5.68286 52.1462 4.13543 50.2843 3.353 48.3854C2.63184 46.6351 2.66096 45.0879 3.43524 44.029L3.75016 43.5983C3.80567 43.5224 3.8921 43.4821 3.97967 43.4821C4.03778 43.4821 4.09635 43.4998 4.14676 43.5366L6.6214 45.3458C6.74771 45.4383 6.77535 45.6161 6.68302 45.7423L5.32829 47.5953C5.09923 47.9085 5.09923 48.3339 5.32829 48.647C6.22661 49.8754 7.4402 51.0648 8.83742 52.0865C10.2351 53.1085 11.7367 53.904 13.1802 54.3873C13.5479 54.5103 13.9532 54.3815 14.1822 54.0683L15.5366 52.2158C15.629 52.0895 15.807 52.062 15.9332 52.1542L18.4073 53.9632C18.4899 54.0235 18.5135 54.1052 18.5202 54.1487C18.5271 54.1923 18.5295 54.2775 18.469 54.3601Z" fill="#12191F"></path>
  <path d="M56.6125 15.0778C55.637 12.7354 54.0354 11.28 52.1025 10.9798L51.5753 10.898C51.0297 10.8132 50.4844 10.9461 50.0391 11.2717C49.5937 11.5974 49.3017 12.0769 49.2171 12.6221L48.7467 15.6513C48.6619 16.1964 48.7947 16.742 49.1204 17.1874C49.446 17.6328 49.9256 17.9247 50.4707 18.0092L52.076 18.2586C52.1901 19.4203 52.1465 20.6946 51.9461 21.9846C51.7457 23.2748 51.4006 24.5028 50.9393 25.5751L49.3344 25.3259C48.7894 25.2413 48.2437 25.374 47.7984 25.6996C47.353 26.0252 47.061 26.5048 46.9764 27.05L46.5061 30.0787C46.3314 31.2042 47.1048 32.262 48.2301 32.4367L48.7574 32.5185C49.0012 32.5564 49.245 32.5751 49.4892 32.5751C51.1809 32.575 52.8647 31.6734 54.2978 29.9813C55.834 28.1673 56.9196 25.6257 57.3546 22.8246C57.7898 20.0234 57.5262 17.2722 56.6125 15.0778ZM55.5941 22.5512C54.8358 27.4343 51.829 31.1919 49.0309 30.7578L48.5035 30.6761C48.3489 30.652 48.2427 30.5067 48.2667 30.352L48.737 27.3233C48.7527 27.2222 48.8145 27.1638 48.8499 27.1377C48.8799 27.1157 48.938 27.083 49.0164 27.083C49.0306 27.083 49.0454 27.084 49.0608 27.0864L51.3285 27.4386C51.7115 27.4982 52.0895 27.3028 52.2626 26.9557C52.9416 25.5934 53.4408 23.969 53.7066 22.2581C53.9722 20.5475 53.9892 18.8485 53.7558 17.3446C53.6963 16.9612 53.3956 16.6605 53.0122 16.6009L50.7439 16.2486C50.6429 16.233 50.5843 16.1711 50.5584 16.1357C50.5323 16.1003 50.4914 16.0257 50.507 15.9247L50.9774 12.8956C50.993 12.7945 51.0549 12.7361 51.0902 12.71C51.1258 12.6841 51.2007 12.6432 51.3013 12.6587L51.8285 12.7405C53.1247 12.9418 54.2392 14.015 54.9671 15.7627C55.757 17.6586 55.9796 20.0695 55.5941 22.5512Z" fill="#12191F"></path>
  <path d="M5.88347 18.1966H28.8824C29.2506 18.1966 29.581 17.9701 29.7135 17.6266C29.8461 17.2831 29.7536 16.8933 29.4809 16.6459L25.0217 12.6013V5.94781C25.0217 3.92505 23.3761 2.2793 21.3532 2.2793H5.88347C3.86071 2.2793 2.21484 3.92494 2.21484 5.94781V10.1451C2.21484 10.6371 2.61371 11.036 3.10569 11.036C3.59767 11.036 3.99654 10.6371 3.99654 10.1451V5.94781C3.99654 4.90743 4.84287 4.0611 5.88336 4.0611H21.3532C22.3936 4.0611 23.2399 4.90743 23.2399 5.94781V12.9959C23.2399 13.2472 23.3461 13.4869 23.5323 13.6557L26.574 16.4148H5.88347C4.84309 16.4148 3.99665 15.5685 3.99665 14.528V12.996C3.99665 12.504 3.59779 12.1051 3.1058 12.1051C2.61382 12.1051 2.21496 12.504 2.21496 12.996V14.5281C2.21496 16.5509 3.86071 18.1966 5.88347 18.1966Z" fill="#12191F"></path>
  <path d="M18.0297 7.52051H7.34788C6.8559 7.52051 6.45703 7.91937 6.45703 8.41135C6.45703 8.90334 6.8559 9.3022 7.34788 9.3022H18.0297C18.5216 9.3022 18.9205 8.90334 18.9205 8.41135C18.9205 7.91937 18.5218 7.52051 18.0297 7.52051Z" fill="#12191F"></path>
  <path d="M13.1611 12.0647C13.1611 12.5567 13.56 12.9555 14.052 12.9555H19.9898C20.4817 12.9555 20.8806 12.5567 20.8806 12.0647C20.8806 11.5727 20.4817 11.1738 19.9898 11.1738H14.052C13.5599 11.1737 13.1611 11.5727 13.1611 12.0647Z" fill="#12191F"></path>
  <path d="M7.34788 12.9555H11.201C11.693 12.9555 12.0919 12.5567 12.0919 12.0647C12.0919 11.5727 11.693 11.1738 11.201 11.1738H7.34788C6.8559 11.1738 6.45703 11.5727 6.45703 12.0647C6.45703 12.5567 6.8559 12.9555 7.34788 12.9555Z" fill="#12191F"></path>
  <path d="M50.6937 33.9951H48.4922C48.0002 33.9951 47.6014 34.394 47.6014 34.886C47.6014 35.3779 48.0002 35.7768 48.4922 35.7768H50.6937C51.7341 35.7768 52.5805 36.6231 52.5805 37.6635V46.2438C52.5805 47.2842 51.7341 48.1306 50.6937 48.1306H30.003L33.0447 45.3717C33.2308 45.2029 33.3371 44.9632 33.3371 44.7118V37.6637C33.3371 36.6234 34.1834 35.777 35.2238 35.777H45.6413C46.1334 35.777 46.5321 35.3782 46.5321 34.8862C46.5321 34.3942 46.1334 33.9953 45.6413 33.9953H35.2238C33.201 33.9953 31.5553 35.641 31.5553 37.6639V44.3172L27.0961 48.3618C26.8233 48.6092 26.731 48.999 26.8635 49.3425C26.996 49.6861 27.3264 49.9126 27.6946 49.9126H50.6937C52.7164 49.9126 54.3623 48.2669 54.3623 46.2439V37.6636C54.3623 35.6408 52.7164 33.9951 50.6937 33.9951Z" fill="#12191F"></path>
  <path d="M47.3695 39.2363H36.6877C36.1956 39.2363 35.7969 39.6352 35.7969 40.1272C35.7969 40.6192 36.1956 41.018 36.6877 41.018H47.3695C47.8616 41.018 48.2604 40.6192 48.2604 40.1272C48.2604 39.6352 47.8616 39.2363 47.3695 39.2363Z" fill="#12191F"></path>
  <path d="M45.7656 43.7805C45.7656 44.2725 46.1644 44.6713 46.6565 44.6713H49.3294C49.8215 44.6713 50.2202 44.2725 50.2202 43.7805C50.2202 43.2885 49.8215 42.8896 49.3294 42.8896H46.6565C46.1646 42.8895 45.7656 43.2884 45.7656 43.7805Z" fill="#12191F"></path>
  <path d="M36.6877 42.8896C36.1956 42.8896 35.7969 43.2885 35.7969 43.7805C35.7969 44.2725 36.1956 44.6713 36.6877 44.6713H43.8058C44.2979 44.6713 44.6966 44.2725 44.6966 43.7805C44.6966 43.2885 44.2979 42.8896 43.8058 42.8896H36.6877Z" fill="#12191F"></path>
</svg>