<svg xmlns="http://www.w3.org/2000/svg" width="55" height="55" viewBox="0 0 55 55" fill="none">
  <path d="M40.1992 39.3887L43.2452 36.3427L47.5668 40.6642L44.5208 43.7102L40.1992 39.3887Z" fill="#E6E2E6"></path>
  <path d="M40.1992 39.3887L43.2452 36.3427L47.5668 40.6642L44.5208 43.7102L40.1992 39.3887Z" fill="#ECDAEC"></path>
  <path d="M40.1992 39.3887L41.6492 37.9387L45.9708 42.2602L44.5208 43.7102L40.1992 39.3887Z" fill="#E2CBE2"></path>
  <path d="M0.859375 2.4707C0.859375 1.58082 1.58082 0.859375 2.4707 0.859375H29.5888L39.5723 10.8428V52.5293C39.5723 53.4192 38.8508 54.1406 37.961 54.1406H2.4707C1.58082 54.1406 0.859375 53.4192 0.859375 52.5293V2.4707Z" fill="#F9F6F6"></path>
  <path d="M37.961 52.207H2.4707C1.58082 52.207 0.859375 51.4856 0.859375 50.5957V52.5293C0.859375 53.4192 1.58082 54.1406 2.4707 54.1406H37.961C38.8508 54.1406 39.5723 53.4192 39.5723 52.5293V50.5957C39.5723 51.4856 38.8508 52.207 37.961 52.207Z" fill="#ECDAEC"></path>
  <path d="M31.2002 10.8428H39.5723L29.5889 0.859375V9.23151C29.5889 10.1214 30.3103 10.8428 31.2002 10.8428Z" fill="#E2CBE2"></path>
  <path d="M31.2002 10.8428H39.5723L29.5889 0.859375V9.23151C29.5889 10.1214 30.3103 10.8428 31.2002 10.8428Z" fill="#E2CBE2"></path>
  <path d="M33.7239 43.229C41.1092 43.229 47.0962 37.242 47.0962 29.8567C47.0962 22.4714 41.1092 16.4844 33.7239 16.4844C26.3385 16.4844 20.3516 22.4714 20.3516 29.8567C20.3516 37.242 26.3385 43.229 33.7239 43.229Z" fill="#E2CBE2"></path>
  <path d="M43.1794 37.3784C37.9572 42.6007 29.4903 42.6007 24.2681 37.3784C21.9031 35.0134 20.6091 31.9829 20.3863 28.8896C20.1171 32.6265 21.411 36.4549 24.2681 39.312C29.4903 44.5343 37.9572 44.5343 43.1794 39.312C46.0366 36.4548 47.3305 32.6265 47.0612 28.8896C46.8383 31.9829 45.5445 35.0134 43.1794 37.3784Z" fill="#DAB9D8"></path>
  <path d="M33.7232 39.5391C39.0705 39.5391 43.4053 35.2043 43.4053 29.857C43.4053 24.5097 39.0705 20.1748 33.7232 20.1748C28.3759 20.1748 24.041 24.5097 24.041 29.857C24.041 35.2043 28.3759 39.5391 33.7232 39.5391Z" fill="#FFE27A"></path>
  <path d="M40.5695 34.7692C36.7884 38.5503 30.658 38.5503 26.877 34.7692C25.2327 33.1249 24.3043 31.0362 24.0901 28.8896C23.8118 31.679 24.7403 34.5659 26.877 36.7028C30.658 40.4839 36.7885 40.4839 40.5695 36.7028C42.7062 34.5659 43.6347 31.679 43.3564 28.8896C43.1423 31.0362 42.2138 33.1249 40.5695 34.7692Z" fill="#F9CF58"></path>
  <path d="M32.857 33.8398C32.4316 33.8398 32.0058 33.6805 31.6769 33.3606L29.4551 31.2C28.7848 30.5482 28.7698 29.4764 29.4216 28.806C30.0734 28.1357 31.1453 28.1208 31.8156 28.7725L32.8254 29.7544L35.859 26.6437C36.5118 25.9744 37.5837 25.961 38.2531 26.6136C38.9224 27.2664 38.9358 28.3384 38.2832 29.0077L34.0691 33.3288C33.7375 33.669 33.2975 33.8398 32.857 33.8398Z" fill="#98DB7C"></path>
  <path d="M38.284 27.0745L34.07 31.3956C33.7382 31.7357 33.2982 31.9066 32.8578 31.9066C32.4324 31.9066 32.0067 31.7473 31.6778 31.4274L29.456 29.2668C29.3773 29.1903 29.3085 29.1076 29.2479 29.0209C28.7821 29.689 28.853 30.6141 29.456 31.2004L31.6778 33.361C32.0068 33.681 32.4324 33.8402 32.8578 33.8402C33.2982 33.8402 33.7382 33.6694 34.07 33.3292L38.284 29.0081C38.8608 28.4168 38.9165 27.5116 38.4603 26.8584C38.4078 26.9337 38.3502 27.0066 38.284 27.0745Z" fill="#82D361"></path>
  <path d="M48.1779 40.0625L43.9297 44.3107L49.0126 49.3936C50.1857 50.5666 52.0876 50.5666 53.2608 49.3936C54.4338 48.2205 54.4338 46.3185 53.2608 45.1454L48.1779 40.0625Z" fill="#FF4755"></path>
  <path d="M50.4611 47.9416L45.3799 42.8604L43.9297 44.3105L49.0126 49.3934C50.1856 50.5665 52.0876 50.5665 53.2607 49.3934C53.5162 49.1379 53.716 48.8477 53.8603 48.538C52.7473 49.0596 51.3805 48.8609 50.4611 47.9416Z" fill="#FC2B3A"></path>
  <path d="M10.8892 21.2051H7.36461C6.81429 21.2051 6.36816 20.759 6.36816 20.2087V16.6839C6.36816 16.1336 6.81429 15.6875 7.36461 15.6875H10.8893C11.4397 15.6875 11.8858 16.1336 11.8858 16.6839V20.2087C11.8857 20.759 11.4396 21.2051 10.8892 21.2051Z" fill="#98DB7C"></path>
  <path d="M10.8892 32.502H7.36461C6.81429 32.502 6.36816 32.0559 6.36816 31.5055V27.9808C6.36816 27.4305 6.81429 26.9844 7.36461 26.9844H10.8893C11.4397 26.9844 11.8858 27.4305 11.8858 27.9808V31.5055C11.8857 32.0559 11.4396 32.502 10.8892 32.502Z" fill="#98DB7C"></path>
  <path d="M10.8892 44.0284H7.36461C6.81429 44.0284 6.36816 43.5822 6.36816 43.0319V39.5072C6.36816 38.9569 6.81429 38.5107 7.36461 38.5107H10.8893C11.4397 38.5107 11.8858 38.9569 11.8858 39.5072V43.0319C11.8857 43.5822 11.4396 44.0284 10.8892 44.0284Z" fill="#98DB7C"></path>
  <path d="M10.8892 19.2717H7.36461C6.81429 19.2717 6.36816 18.8256 6.36816 18.2754V20.209C6.36816 20.7593 6.81429 21.2054 7.36461 21.2054H10.8893C11.4397 21.2054 11.8857 20.7593 11.8857 20.209V18.2754C11.8857 18.8256 11.4396 19.2717 10.8892 19.2717Z" fill="#82D361"></path>
  <path d="M10.8892 30.5687H7.36461C6.81429 30.5687 6.36816 30.1226 6.36816 29.5723V31.5059C6.36816 32.0562 6.81429 32.5023 7.36461 32.5023H10.8893C11.4397 32.5023 11.8857 32.0562 11.8857 31.5059V29.5723C11.8857 30.1226 11.4396 30.5687 10.8892 30.5687Z" fill="#82D361"></path>
  <path d="M10.8892 42.0941H7.36461C6.81429 42.0941 6.36816 41.648 6.36816 41.0977V43.0312C6.36816 43.5816 6.81429 44.0277 7.36461 44.0277H10.8893C11.4397 44.0277 11.8857 43.5816 11.8857 43.0312V41.0977C11.8857 41.648 11.4396 42.0941 10.8892 42.0941Z" fill="#82D361"></path>
  <path d="M29.5889 9.23145V11.165C29.5889 12.0549 30.3103 12.7764 31.2002 12.7764H39.5723V10.8428H31.2002C30.3103 10.8428 29.5889 10.1213 29.5889 9.23145Z" fill="#ECDAEC"></path>
  <path d="M32.8725 34.6596C33.5532 34.6596 34.1899 34.3912 34.6653 33.904L38.8881 29.5744C39.8519 28.5861 39.8319 26.998 38.8436 26.0341C37.8552 25.0704 36.2667 25.0904 35.3029 26.0786L32.8257 28.6183L32.3917 28.1963C31.4019 27.2342 29.8136 27.2563 28.851 28.2459C27.8887 29.2356 27.9109 30.8237 28.9007 31.7861L31.1271 33.9509C31.5971 34.4079 32.217 34.6596 32.8725 34.6596ZM30.0088 29.3715C30.3508 29.0198 30.9151 29.0125 31.2662 29.354L32.278 30.3379C32.5973 30.6484 33.1078 30.6415 33.4189 30.3227L36.4589 27.206C36.8014 26.8548 37.3654 26.8481 37.7163 27.1901C38.0673 27.5324 38.0743 28.0964 37.7322 28.4474L33.5093 32.7768C33.183 33.1258 32.5885 33.1332 32.2528 32.7935L30.0264 30.6288C29.675 30.287 29.6669 29.7229 30.0088 29.3715Z" fill="#12191F"></path>
  <path d="M26.6313 35.2094C26.3627 34.8535 25.8567 34.7826 25.5005 35.0512C25.1445 35.3197 25.0738 35.8259 25.3422 36.1818C25.6362 36.5714 25.9615 36.945 26.3087 37.2922C28.2937 39.277 30.933 40.37 33.7402 40.37C36.5475 40.37 39.1866 39.277 41.1717 37.2922C43.1568 35.3075 44.25 32.6685 44.25 29.8617C44.25 27.0548 43.1567 24.416 41.1717 22.4312C37.0739 18.3341 30.4065 18.3342 26.3087 22.4312C23.515 25.2245 22.5264 29.2994 23.7287 33.0656C23.8643 33.4903 24.3189 33.7245 24.7433 33.5892C25.1681 33.4536 25.4026 32.9993 25.2669 32.5747C24.2491 29.3866 25.0858 25.9373 27.4506 23.5729C30.9186 20.1052 36.5619 20.1052 40.0299 23.5729C41.71 25.2528 42.6353 27.4862 42.6353 29.8618C42.6353 32.2375 41.71 34.4709 40.0299 36.1507C38.3499 37.8305 36.1162 38.7557 33.7402 38.7557C31.3644 38.7557 29.1306 37.8306 27.4505 36.1507C27.1559 35.856 26.8803 35.5394 26.6313 35.2094Z" fill="#12191F"></path>
  <path d="M53.8894 44.6092L48.796 39.5164C48.4806 39.2012 47.9694 39.2011 47.6541 39.5164L47.6229 39.5476L45.6628 37.5878C46.9804 35.5564 47.7655 33.2094 47.9199 30.7598C47.948 30.3149 47.6099 29.9315 47.165 29.9033C46.7204 29.8763 46.3366 30.2134 46.3084 30.6582C46.1156 33.7164 44.8146 36.5953 42.6451 38.7645C40.1933 41.2161 36.9735 42.4432 33.7528 42.4464C33.7487 42.4463 33.7448 42.4457 33.7406 42.4457H33.6764C30.4731 42.4296 27.2747 41.2028 24.836 38.7645C22.4575 36.3864 21.1476 33.2244 21.1476 29.8611C21.1476 26.4979 22.4575 23.3359 24.836 20.9578C29.746 16.0484 37.7352 16.0484 42.6451 20.9578C44.4738 22.7863 45.6806 25.0928 46.1351 27.628C46.2139 28.0669 46.6337 28.3584 47.0723 28.2802C47.5112 28.2016 47.8032 27.7821 47.7245 27.3432C47.2115 24.4818 45.8499 21.8789 43.7869 19.8161C42.7646 18.794 41.6238 17.9612 40.4086 17.3163V10.8102C40.4079 10.5977 40.3221 10.3897 40.1721 10.2393L30.1679 0.236436C30.0174 0.0866894 29.8096 0.000537109 29.5969 0H2.42215C1.08668 0 0.000107422 1.08636 0.000107422 2.42172V9.20681C0.000107422 9.65261 0.361475 10.0141 0.80749 10.0141C1.2534 10.0141 1.61487 9.65271 1.61487 9.20681V2.42172C1.61487 1.97656 1.97699 1.61444 2.42226 1.61444H28.7898V9.19574C28.7898 10.5311 29.8764 11.6175 31.2119 11.6175H38.7941V16.5852C37.2189 15.9883 35.5581 15.6818 33.8947 15.6638C33.8868 15.6628 33.879 15.6611 33.8708 15.6611H15.8454C15.3995 15.6611 15.038 16.0226 15.038 16.4684C15.038 16.9142 15.3995 17.2757 15.8454 17.2757H27.1489C25.9973 17.8779 24.9117 18.6488 23.9285 19.5879H15.8454C15.3995 19.5879 15.038 19.9494 15.038 20.3952C15.038 20.841 15.3995 21.2025 15.8454 21.2025H22.4754C21.1576 22.9095 20.257 24.8756 19.8259 26.9743H15.8455C15.3996 26.9743 15.0381 27.3358 15.0381 27.7816C15.0381 28.2274 15.3996 28.5888 15.8455 28.5888H19.5901C19.5529 29.0096 19.5333 29.4339 19.5333 29.8613C19.5333 30.212 19.5461 30.5607 19.5711 30.9069H15.8456C15.3997 30.9069 15.0382 31.2684 15.0382 31.7142C15.0382 32.16 15.3997 32.5214 15.8456 32.5214H19.7815C20.1933 34.7065 21.1113 36.754 22.4779 38.5231H15.8456C15.3997 38.5231 15.0382 38.8845 15.0382 39.3304C15.0382 39.7763 15.3997 40.1376 15.8456 40.1376H23.9318C24.9135 41.0751 25.9974 41.8447 27.147 42.4461H15.8452C15.3992 42.4461 15.0378 42.8076 15.0378 43.2534C15.0378 43.6992 15.3992 44.0607 15.8452 44.0607H33.7406C35.4552 44.0605 37.17 43.7525 38.7939 43.1373V52.5787C38.7939 53.0238 38.4318 53.386 37.9865 53.386H2.42215C1.97699 53.386 1.61477 53.0239 1.61477 52.5787V12.4362C1.61477 11.9904 1.25329 11.629 0.807383 11.629C0.361475 11.629 0 11.9903 0 12.4362V52.5787C0.000107422 53.9136 1.08668 55 2.42215 55H37.9866C39.3221 55 40.4087 53.9136 40.4087 52.5783V42.4058C40.769 42.2145 41.1226 42.0066 41.4686 41.7823L43.4283 43.7416C43.0892 44.0377 43.071 44.6019 43.397 44.9145L48.4906 50.0074C49.9114 51.4882 52.4685 51.4881 53.8893 50.0074C55.3704 48.5866 55.3703 46.0298 53.8894 44.6092ZM31.2117 10.003C30.7666 10.003 30.4044 9.6409 30.4044 9.19574V2.75612L37.6522 10.003H31.2117ZM42.7856 40.8158C43.1301 40.531 43.4646 40.2283 43.7869 39.9062C44.1072 39.5858 44.4104 39.2514 44.6965 38.905L46.481 40.6891L44.57 42.5999L42.7856 40.8158ZM52.7476 48.8657C51.9277 49.7202 50.4523 49.72 49.6323 48.8657L45.1097 44.3436L48.225 41.2287L52.7477 45.7508C53.6021 46.5707 53.6022 48.0458 52.7476 48.8657Z" fill="#12191F"></path>
  <path d="M7.32638 22.0002H10.8584C11.8542 22.0002 12.6644 21.1903 12.6644 20.1947V16.6631C12.6644 15.6674 11.8543 14.8574 10.8584 14.8574H7.32638C6.33068 14.8574 5.52051 15.6674 5.52051 16.6631V20.1947C5.52051 21.1903 6.33068 22.0002 7.32638 22.0002ZM7.13527 16.6631C7.13527 16.5577 7.2211 16.472 7.32638 16.472H10.8584C10.9639 16.472 11.0496 16.5577 11.0496 16.6631V20.1947C11.0496 20.3001 10.9638 20.3858 10.8584 20.3858H7.32638C7.221 20.3858 7.13527 20.3001 7.13527 20.1947V16.6631Z" fill="#12191F"></path>
  <path d="M5.52051 31.5139C5.52051 32.5095 6.33058 33.3195 7.32638 33.3195H10.8584C11.8542 33.3195 12.6644 32.5095 12.6644 31.5139V27.9823C12.6644 26.9867 11.8543 26.1768 10.8584 26.1768H7.32638C6.33068 26.1768 5.52051 26.9867 5.52051 27.9823V31.5139ZM7.13527 27.9823C7.13527 27.8769 7.2211 27.7912 7.32638 27.7912H10.8584C10.9639 27.7912 11.0496 27.8769 11.0496 27.9823V31.5139C11.0496 31.6193 10.9638 31.705 10.8584 31.705H7.32638C7.221 31.705 7.13527 31.6193 7.13527 31.5139V27.9823Z" fill="#12191F"></path>
  <path d="M5.52051 43.0619C5.52051 44.0575 6.33058 44.8674 7.32638 44.8674H10.8584C11.8542 44.8674 12.6644 44.0575 12.6644 43.0619V39.5303C12.6644 38.5346 11.8543 37.7246 10.8584 37.7246H7.32638C6.33068 37.7246 5.52051 38.5346 5.52051 39.5303V43.0619ZM7.13527 39.5303C7.13527 39.4249 7.2211 39.3392 7.32638 39.3392H10.8584C10.9639 39.3392 11.0496 39.4249 11.0496 39.5303V43.0619C11.0496 43.1672 10.9638 43.253 10.8584 43.253H7.32638C7.221 43.253 7.13527 43.1672 7.13527 43.0619V39.5303Z" fill="#12191F"></path>
</svg>