<svg xmlns="http://www.w3.org/2000/svg" width="61" height="56" viewBox="0 0 61 56" fill="none">
  <path d="M54.5479 43.0958H6.45173C3.53624 43.0958 1.17285 40.7325 1.17285 37.817V7.31697C1.17285 4.40148 3.53624 2.03809 6.45173 2.03809H54.5479C57.4633 2.03809 59.8267 4.40148 59.8267 7.31697V37.817C59.8267 40.7325 57.4633 43.0958 54.5479 43.0958Z" fill="#FFFDE7"></path>
  <path d="M38.8596 17.9398L28.0762 15.4512L30.5647 26.2346L33.4679 23.3315L36.7859 26.6494L39.2743 24.1609L35.9564 20.8429L38.8596 17.9398Z" fill="#FB8C00"></path>
  <path d="M39.8844 54.8264H21.1152L23.4614 43.0957H37.5383L39.8844 54.8264Z" fill="#FB8C00"></path>
  <path d="M1.17285 33.7119V37.8177C1.17285 40.7332 3.53624 43.0966 6.45173 43.0966H54.5479C57.4633 43.0966 59.8267 40.7332 59.8267 37.8177V33.7119H1.17285Z" fill="#FFECB3"></path>
  <path d="M54.5481 0.865234H6.45194C2.89428 0.865234 0 3.75964 0 7.31718V33.7114V37.8172C0 41.3747 2.89428 44.2691 6.45194 44.2691H22.0306L20.1537 53.6537H14.0769C13.4291 53.6537 12.9039 54.1789 12.9039 54.8268C12.9039 55.4747 13.4291 55.9998 14.0769 55.9998H21.1154H39.8846H46.9231C47.5709 55.9998 48.0961 55.4747 48.0961 54.8268C48.0961 54.1789 47.5709 53.6537 46.9231 53.6537H40.8463L38.9693 44.2691H54.5481C58.1056 44.2691 61 41.3748 61 37.8172V33.7114V7.31718C61 3.75964 58.1057 0.865234 54.5481 0.865234ZM6.45194 3.21147H54.5481C56.812 3.21147 58.6539 5.05327 58.6539 7.31729V32.5384H2.34612V30.1923H9.38459C10.0325 30.1923 10.5576 29.6671 10.5576 29.0192C10.5576 28.3713 10.0325 27.8462 9.38459 27.8462H2.34612V7.31718C2.34612 5.05327 4.18803 3.21147 6.45194 3.21147ZM38.4537 53.6537H22.5463L24.4232 44.2691H36.5768L38.4537 53.6537ZM58.6539 37.8172C58.6539 40.0811 56.8121 41.923 54.5481 41.923H37.5385H23.4615H6.45194C4.18803 41.923 2.34612 40.0812 2.34612 37.8172V34.8845H58.6538V37.8172H58.6539Z" fill="#12191F"></path>
  <path d="M30.4994 40.7499C31.7931 40.7499 32.8456 39.6974 32.8456 38.4037C32.8456 37.1101 31.7931 36.0576 30.4994 36.0576C29.2058 36.0576 28.1533 37.1101 28.1533 38.4037C28.1533 39.6974 29.2058 40.7499 30.4994 40.7499Z" fill="#12191F"></path>
  <path d="M29.4221 26.4985C29.518 26.9141 29.8318 27.2448 30.2418 27.3624C30.6519 27.4799 31.093 27.3657 31.3947 27.0643L33.4683 24.9905L35.9568 27.479C36.1859 27.7081 36.4862 27.8226 36.7863 27.8226C37.0865 27.8226 37.3868 27.7081 37.6157 27.479L40.1042 24.9905C40.5623 24.5324 40.5623 23.7896 40.1042 23.3315L37.6157 20.843L39.6895 18.7694C39.9909 18.4678 40.1051 18.0264 39.9876 17.6165C39.87 17.2066 39.5393 16.8928 39.1237 16.7968L28.3403 14.3083C27.9463 14.2176 27.5331 14.3358 27.2469 14.6219C26.961 14.9078 26.8425 15.321 26.9334 15.7152L29.4221 26.4985ZM36.5339 18.607L35.1273 20.0136C34.6692 20.4717 34.6692 21.2144 35.1273 21.6726L37.6157 24.1611L36.7863 24.9905L34.2978 22.5021C34.0687 22.2729 33.7685 22.1584 33.4683 22.1584C33.1682 22.1584 32.8679 22.2729 32.6389 22.5021L31.2323 23.9087L29.6418 17.0166L36.5339 18.607Z" fill="#12191F"></path>
  <path d="M24.0128 13.0458C24.242 13.2749 24.5422 13.3894 24.8423 13.3894C25.1424 13.3894 25.4428 13.2749 25.6718 13.0458C26.1299 12.5877 26.1299 11.8448 25.6718 11.3867L24.4987 10.2137C24.0406 9.75559 23.2978 9.75559 22.8397 10.2137C22.3816 10.6718 22.3816 11.4146 22.8397 11.8727L24.0128 13.0458Z" fill="#12191F"></path>
  <path d="M21.7248 16.9086H23.3837C24.0316 16.9086 24.5568 16.3834 24.5568 15.7356C24.5568 15.0877 24.0316 14.5625 23.3837 14.5625H21.7248C21.0769 14.5625 20.5518 15.0877 20.5518 15.7356C20.5518 16.3834 21.0769 16.9086 21.7248 16.9086Z" fill="#12191F"></path>
  <path d="M24.0127 18.4256L22.8397 19.5987C22.3816 20.0568 22.3816 20.7996 22.8397 21.2577C23.0688 21.4868 23.369 21.6013 23.6691 21.6013C23.9692 21.6013 24.2696 21.4868 24.4986 21.2577L25.6716 20.0846C26.1297 19.6265 26.1297 18.8837 25.6716 18.4256C25.2137 17.9675 24.4709 17.9675 24.0127 18.4256Z" fill="#12191F"></path>
  <path d="M31.8802 13.3894C32.1804 13.3894 32.4807 13.2749 32.7096 13.0458L33.8827 11.8727C34.3408 11.4146 34.3408 10.6718 33.8827 10.2137C33.4246 9.75559 32.6818 9.75559 32.2237 10.2137L31.0506 11.3867C30.5925 11.8448 30.5925 12.5877 31.0506 13.0458C31.2797 13.2749 31.5798 13.3894 31.8802 13.3894Z" fill="#12191F"></path>
  <path d="M28.3615 11.9319C29.0094 11.9319 29.5346 11.4067 29.5346 10.7588V9.09982C29.5346 8.45193 29.0094 7.92676 28.3615 7.92676C27.7136 7.92676 27.1885 8.45193 27.1885 9.09982V10.7587C27.1885 11.4067 27.7136 11.9319 28.3615 11.9319Z" fill="#12191F"></path>
  <path d="M11.8208 29.4673C11.8501 29.539 11.8864 29.607 11.9287 29.6702C11.9709 29.7348 12.0202 29.7946 12.0742 29.8486C12.1282 29.9026 12.188 29.9518 12.2525 29.9941C12.3159 30.0362 12.384 30.0727 12.4554 30.102C12.5259 30.1313 12.5997 30.1548 12.6748 30.17C12.7498 30.1853 12.8273 30.1923 12.9035 30.1923C12.9798 30.1923 13.0572 30.1853 13.1323 30.17C13.2073 30.1548 13.2812 30.1313 13.3516 30.102C13.4232 30.0727 13.4912 30.0364 13.5545 29.9941C13.6191 29.9519 13.6789 29.9026 13.7329 29.8486C13.7868 29.7946 13.836 29.7348 13.8783 29.6702C13.9205 29.6069 13.957 29.5388 13.9863 29.4673C14.0156 29.3969 14.0391 29.3231 14.0531 29.248C14.0684 29.173 14.0766 29.0955 14.0766 29.0193C14.0766 28.943 14.0684 28.8656 14.0531 28.7905C14.0391 28.7155 14.0156 28.6416 13.9863 28.57C13.957 28.4996 13.9206 28.4315 13.8783 28.3682C13.8362 28.3036 13.7868 28.2438 13.7329 28.1898C13.6789 28.1358 13.6191 28.0866 13.5545 28.0443C13.4911 28.0022 13.4231 27.9657 13.3516 27.9364C13.2812 27.9071 13.2073 27.8836 13.1323 27.8696C12.981 27.8391 12.8261 27.8391 12.6748 27.8696C12.5997 27.8836 12.5259 27.9071 12.4554 27.9364C12.3838 27.9657 12.3158 28.002 12.2525 28.0443C12.188 28.0865 12.1282 28.1358 12.0742 28.1898C12.0202 28.2438 11.971 28.3036 11.9287 28.3682C11.8865 28.4315 11.8501 28.4996 11.8208 28.57C11.7915 28.6416 11.768 28.7155 11.7539 28.7905C11.7387 28.8656 11.7305 28.943 11.7305 29.0193C11.7305 29.0955 11.7387 29.173 11.7539 29.248C11.768 29.3231 11.7915 29.3971 11.8208 29.4673Z" fill="#12191F"></path>
</svg>