<svg xmlns="http://www.w3.org/2000/svg" width="58" height="59" viewBox="0 0 58 59" fill="none">
  <path d="M35.2616 10.9395C35.2616 10.9395 40.915 3.60204 39.2894 1.49704C38.7353 0.779707 38.2629 1.7539 37.1171 1.7539C35.7708 1.7539 35.7708 0.873047 34.4244 0.873047C33.0782 0.873047 33.0782 1.7539 31.732 1.7539C30.386 1.7539 30.386 0.873047 29.0399 0.873047C27.6938 0.873047 27.6938 1.7539 26.3477 1.7539C25.2005 1.7539 24.73 0.767031 24.1723 1.48471C22.5458 3.57807 28.1166 10.9394 28.1166 10.9394C3.51338 27.1136 11.4463 49.1097 25.9725 49.1097H37.4929C52.0628 49.1097 59.9466 27.1673 35.2616 10.9395Z" fill="#EABC6B"></path>
  <path d="M35.2613 10.9395C35.2613 10.9395 40.9148 3.60204 39.2891 1.49704C38.7351 0.779707 38.2626 1.7539 37.1168 1.7539C35.7705 1.7539 35.7705 0.873047 34.4241 0.873047C33.078 0.873047 33.078 1.7539 31.7318 1.7539C31.6655 1.7539 31.6049 1.75022 31.5449 1.74607C31.004 4.0646 28.5665 7.67675 27.1717 9.61074C27.721 10.4168 28.1164 10.9394 28.1164 10.9394C27.7882 11.1551 27.4671 11.3721 27.1504 11.5899C50.6572 27.7471 42.7917 49.1096 28.4154 49.1096H37.4926C52.0626 49.1097 59.9464 27.1673 35.2613 10.9395Z" fill="#E8AE4D"></path>
  <path d="M36.3129 13.5491C33.0279 14.3787 29.7824 14.3788 26.4968 13.5491C25.3532 13.2603 24.705 11.9744 25.1165 10.8056C25.1211 10.7925 25.1257 10.7794 25.1304 10.7664C25.4754 9.78643 26.4539 9.23653 27.413 9.47725C30.103 10.1526 32.706 10.1528 35.3968 9.47725C36.3559 9.23641 37.3343 9.78643 37.6794 10.7664C37.6841 10.7794 37.6887 10.7925 37.6933 10.8056C38.1047 11.9745 37.4565 13.2603 36.3129 13.5491Z" fill="#FFE07D"></path>
  <path d="M5.42578 52.8777L17.9364 57.5344C18.999 57.9299 20.1235 58.1323 21.2572 58.1323H34.1504C35.9548 58.1323 37.7219 57.6195 39.246 56.6539L55.3895 46.4243C56.4546 45.4786 56.652 43.8892 55.8507 42.7116C54.974 41.4231 53.5236 41.1991 51.9277 41.9538L36.2105 48.8742L36.229 46.3242C36.0209 44.2312 34.4094 42.5514 32.3267 42.2566L22.7554 41.1546C20.5475 40.8422 19.4441 40.1023 17.5194 38.9764C14.8915 37.4391 11.9019 36.6289 8.85748 36.6289H5.42578V52.8777Z" fill="#FFDDCE"></path>
  <path d="M5.42578 52.8777L17.9364 57.5344C18.999 57.9299 20.1235 58.1323 21.2572 58.1323H34.1504C35.9548 58.1323 37.7219 57.6195 39.246 56.6539L55.3895 46.4243C56.4546 45.4786 56.652 43.8892 55.8507 42.7116C54.974 41.4231 53.5236 41.1991 51.9277 41.9538L36.2105 48.8742L36.229 46.3242C36.0209 44.2312 34.4094 42.5514 32.3267 42.2566L22.7554 41.1546C20.5475 40.8422 19.4441 40.1023 17.5194 38.9764C14.8915 37.4391 11.9019 36.6289 8.85748 36.6289H5.42578V52.8777Z" fill="#FFDDCE"></path>
  <path d="M55.8507 42.7119C54.974 41.4235 53.5236 41.1994 51.9277 41.9541L47.6046 43.8577C47.8139 44.1891 47.9805 44.4536 47.9805 44.4536C48.7817 45.6312 48.5843 47.2205 47.5193 48.1663L38.1128 54.1269C36.8739 54.694 35.5231 54.9916 34.1504 54.9916H21.2572C20.1235 54.9916 18.9989 54.7891 17.9364 54.3936L5.42578 49.737V52.8781L17.9364 57.5347C18.999 57.9302 20.1235 58.1327 21.2572 58.1327H31.7911H34.1504C35.9548 58.1327 37.7219 57.6199 39.246 56.6542L55.3895 46.4248C56.4545 45.4789 56.652 43.8895 55.8507 42.7119Z" fill="#FFCBBE"></path>
  <path d="M35.0561 43.6973L35.0557 43.7588L35.0962 43.7409C35.0832 43.7261 35.0695 43.7118 35.0561 43.6973Z" fill="#F5DBCC"></path>
  <path d="M8.11819 55.3693C8.11819 56.277 7.3823 57.0129 6.47459 57.0129H2.50786C1.60015 57.0129 0.864258 56.277 0.864258 55.3693V35.2442C0.864258 34.3365 1.60015 33.6006 2.50786 33.6006H6.47459C7.3823 33.6006 8.11819 34.3365 8.11819 35.2442V55.3693Z" fill="#407093"></path>
  <path d="M56.5654 42.2296C55.4648 40.6122 53.5979 40.2173 51.5698 41.1716L50.4948 41.6449C52.1897 38.0323 52.4 34.0052 51.5563 30.2013C50.5873 25.8324 48.2467 21.6 44.5998 17.6217C44.2773 17.2699 43.7308 17.2462 43.3788 17.5687C43.027 17.8912 43.0033 18.4377 43.3258 18.7897C46.7651 22.5412 48.9666 26.5066 49.8691 30.5754C50.8197 34.8614 50.2667 39.2813 47.8409 42.8134L37.0846 47.5494L37.0935 46.3346C37.0937 46.304 37.0923 46.2733 37.0892 46.2428C36.8409 43.746 34.9323 41.7567 32.448 41.4052C32.4406 41.4041 32.4332 41.4032 32.4258 41.4023L22.8657 40.3016C19.1896 39.7783 18.2429 37.5754 13.2642 36.3192C12.9203 33.4003 13.3788 30.2925 14.6355 27.1769C16.5283 22.4848 20.2311 17.9261 25.3644 13.9582C27.2776 15.3147 35.8134 15.4836 37.7236 13.7336C38.7021 14.4768 39.6361 15.2426 40.5061 16.0178C40.6708 16.1646 40.8762 16.2367 41.0807 16.2367C41.3186 16.2367 41.5555 16.1391 41.7261 15.9475C42.0436 15.5912 42.012 15.045 41.6557 14.7275C40.7021 13.8779 39.6762 13.0395 38.6003 12.2293C38.8524 11.1602 38.4996 9.90884 37.5685 9.16396C40.2741 5.06021 41.061 2.3742 39.974 0.966945C39.2274 0.000238696 38.2986 0.453919 37.902 0.647744C37.2297 0.975934 36.8631 0.993219 36.2445 0.588514C35.0644 -0.183676 33.824 -0.208567 32.6059 0.588514C31.9794 0.998405 31.4861 0.998405 30.8599 0.588514C29.6797 -0.183676 28.4398 -0.208567 27.2214 0.588514C26.5957 0.998059 26.2277 0.972707 25.566 0.643826C25.1699 0.44689 24.2421 -0.014281 23.4908 0.952541C22.4282 2.32015 23.1391 4.92147 25.6621 8.88567C25.5076 8.96921 25.3603 9.06728 25.2229 9.17929C24.2194 8.11958 22.5753 7.01437 20.1978 7.27987C18.2258 7.50054 16.7717 6.84889 15.8989 6.26349C15.5025 5.99799 14.9657 6.10378 14.7 6.49996C14.4342 6.89636 14.5401 7.43313 14.9364 7.69886C16.049 8.44478 17.8981 9.27516 20.3896 8.99733C22.2264 8.79129 23.4728 9.72999 24.2487 10.6853C24.2381 10.7222 24.2283 10.7593 24.2192 10.7964C23.5574 10.8068 22.5683 10.8685 21.4791 11.0951C18.8596 11.64 16.9151 12.8849 15.8558 14.6955C15.6148 15.1073 15.7533 15.6367 16.1652 15.8778C16.5771 16.1187 17.1064 15.9801 17.3474 15.5683C18.9231 12.8753 22.7693 12.546 24.297 12.5254C24.3035 12.5444 24.3113 12.5632 24.3182 12.5821C18.8666 16.7873 15.0712 21.4771 13.033 26.5301C11.7446 29.7241 11.23 32.9239 11.4912 35.9649C10.6626 35.8423 9.82436 35.7765 8.98211 35.7707V35.2481C8.98211 33.8654 7.85718 32.7406 6.47448 32.7406H2.50763C1.12492 32.7406 0 33.8655 0 35.2481V55.3732C0 56.756 1.12492 57.8808 2.50763 57.8808H6.47436C7.85707 57.8808 8.98199 56.7559 8.98199 55.3732V55.1271L17.6351 58.3478C18.7979 58.7805 20.0167 59 21.2574 59H34.1506C36.1218 59 38.0438 58.4423 39.7087 57.3873C56.9086 46.4837 55.8641 47.1621 55.9634 47.0741C57.3489 45.8443 57.6077 43.7616 56.5654 42.2296ZM36.102 12.7096C32.942 13.5075 29.8696 13.5075 26.7089 12.7096C25.3527 12.3668 25.7457 9.94802 27.2032 10.3135C30.0308 11.0234 32.7799 11.0234 35.6077 10.3135C37.0399 9.95401 37.48 12.3614 36.102 12.7096ZM24.7768 2.18164C24.7836 2.18498 24.7904 2.18844 24.7969 2.19166C25.9664 2.77291 26.9912 2.80448 28.1676 2.03483C29.6398 1.07112 29.7997 2.6163 31.7327 2.6163C32.6634 2.6163 33.177 2.28028 33.5519 2.03483C34.1785 1.62482 34.6719 1.62505 35.2983 2.03483C36.48 2.80806 37.48 2.76991 38.6835 2.18947C38.8613 2.83041 38.4589 4.74112 35.8965 8.55609C34.6241 8.53443 32.7776 9.78415 27.5503 8.62086C24.9934 4.75656 24.5981 2.8273 24.7768 2.18164ZM54.8629 45.7393L38.7837 55.9281C37.396 56.8074 35.7938 57.2724 34.1507 57.2724H21.2575C20.2233 57.2724 19.2074 57.0894 18.238 56.7286L8.98199 53.2834V43.9776C8.98199 43.5003 8.59515 43.1135 8.11796 43.1135C7.64077 43.1135 7.25393 43.5003 7.25393 43.9776V55.3737C7.25393 55.8035 6.90419 56.1531 6.47448 56.1531H2.50763C2.0778 56.1531 1.72818 55.8034 1.72818 55.3737V35.2486C1.72818 34.8187 2.0778 34.4692 2.50763 34.4692H6.47436C6.90419 34.4692 7.25381 34.8189 7.25381 35.2486V39.9379C7.25381 40.4152 7.64066 40.8021 8.11785 40.8021C8.59504 40.8021 8.98188 40.4152 8.98188 39.9379V37.4993C16.13 37.5541 17.7372 41.3217 22.6345 42.0144C22.6418 42.0155 22.6492 42.0164 22.6566 42.0172L32.2161 43.1178C33.89 43.3595 35.1783 44.6924 35.3647 46.3706L35.3527 48.0143H26.4376C25.9604 48.0143 25.5734 48.4011 25.5734 48.8784C25.5734 49.3558 25.9603 49.7426 26.4376 49.7426H36.2105C36.3197 49.7426 36.4457 49.7184 36.5554 49.6706C36.5731 49.6627 52.2577 42.757 52.276 42.749C53.4066 42.2466 54.4374 42.1748 55.1364 43.202C55.6798 44.0002 55.5595 45.0794 54.8629 45.7393Z" fill="#12191F"></path>
  <path d="M31.633 39.205C32.1102 39.205 32.4972 38.8181 32.4972 38.3408V36.9085C34.923 36.5148 36.3384 34.5513 36.6463 32.7196C37.031 30.4313 35.8324 28.4413 33.5929 27.6498C33.1972 27.5099 32.8331 27.3761 32.4971 27.2469V21.7373C33.5193 21.9068 34.1331 22.4359 34.1778 22.4754C34.5288 22.7946 35.072 22.771 35.3941 22.4218C35.7176 22.071 35.6955 21.5244 35.3447 21.2008C35.2838 21.1445 34.2255 20.1917 32.4971 19.9924V18.7636C32.4971 18.2863 32.1102 17.8994 31.6329 17.8994C31.1557 17.8994 30.7689 18.2863 30.7689 18.7636V20.0623C30.5605 20.1021 30.3471 20.1528 30.1278 20.2189C28.662 20.6603 27.5664 21.9172 27.2683 23.4988C26.9978 24.9341 27.4529 26.3143 28.4558 27.1009C29.0316 27.5525 29.7564 27.966 30.7689 28.408V35.2416C29.7696 35.1993 29.1544 35.0117 28.0814 34.3097C27.6821 34.0486 27.1465 34.1602 26.8852 34.5597C26.624 34.959 26.7359 35.4947 27.1353 35.7559C28.5459 36.6787 29.4889 36.9194 30.7689 36.9692V38.3408C30.7689 38.8181 31.1557 39.205 31.633 39.205ZM29.5224 25.7412C29.0291 25.3542 28.816 24.6176 28.9666 23.8189C29.1063 23.0782 29.6155 22.1782 30.6263 21.8738C30.6744 21.8592 30.7216 21.8468 30.7689 21.8341V26.5017C30.2515 26.2434 29.8457 25.9948 29.5224 25.7412ZM33.017 29.2792C35.1673 30.0392 35.0341 31.8855 34.942 32.4332C34.7514 33.5672 33.9189 34.7779 32.4971 35.1423V29.092C32.6653 29.1535 32.8371 29.2156 33.017 29.2792Z" fill="#12191F"></path>
</svg>