<svg xmlns="http://www.w3.org/2000/svg" width="61" height="61" viewBox="0 0 61 61" fill="none">
  <path d="M10.5215 0.893555H50.4782V30.5531H10.5215V0.893555Z" fill="#D8E2F1"></path>
  <path d="M48.0713 0.893555H50.4783V30.5531H48.0713V0.893555Z" fill="#B9CBEA"></path>
  <path d="M15.0947 5.4668H26.6485V22.0753H15.0947V5.4668Z" fill="#DD5790"></path>
  <path d="M30.9814 5.4668H45.905V9.55881H30.9814V5.4668Z" fill="#5766CB"></path>
  <path d="M57.6996 51.4949H3.30056C1.97118 51.4949 0.893555 50.4172 0.893555 49.0879V32.9607C0.893555 31.6313 1.97118 30.5537 3.30056 30.5537H57.6996C59.0289 30.5537 60.1066 31.6313 60.1066 32.9607V49.0879C60.1066 50.4172 59.0289 51.4949 57.6996 51.4949Z" fill="#80E29D"></path>
  <path d="M57.6994 30.5537H54.0889C55.4182 30.5537 56.4959 31.6313 56.4959 32.9607V49.0879C56.4959 50.4172 55.4182 51.4949 54.0889 51.4949H57.6994C59.0288 51.4949 60.1064 50.4172 60.1064 49.0879V32.9607C60.1064 31.6313 59.0288 30.5537 57.6994 30.5537Z" fill="#78D090"></path>
  <path d="M53.1455 53.1455L60.1068 49.0777L43.1035 43.1035L49.0777 60.1068L53.1455 53.1455Z" fill="#D8E2F1"></path>
  <path d="M26.6485 4.57324H15.0947C14.6011 4.57324 14.2012 4.9732 14.2012 5.4668V22.0754C14.2012 22.569 14.6011 22.9689 15.0947 22.9689H26.6485C27.1421 22.9689 27.5421 22.569 27.5421 22.0754V5.4668C27.5421 4.9732 27.142 4.57324 26.6485 4.57324ZM25.755 21.1818H15.9883V6.36036H25.755V21.1818Z" fill="#12191F"></path>
  <path d="M30.9814 10.4522H45.905C46.3986 10.4522 46.7986 10.0523 46.7986 9.55869V5.4668C46.7986 4.9732 46.3986 4.57324 45.905 4.57324H30.9814C30.4878 4.57324 30.0879 4.9732 30.0879 5.4668V9.55881C30.0879 10.0523 30.4878 10.4522 30.9814 10.4522ZM31.875 6.36036H45.0115V8.66525H31.875V6.36036Z" fill="#12191F"></path>
  <path d="M30.9814 14.7852H45.905C46.3986 14.7852 46.7986 14.3852 46.7986 13.8916C46.7986 13.398 46.3986 12.998 45.905 12.998H30.9814C30.4878 12.998 30.0879 13.398 30.0879 13.8916C30.0879 14.3852 30.4878 14.7852 30.9814 14.7852Z" fill="#12191F"></path>
  <path d="M30.9814 18.6367H45.905C46.3986 18.6367 46.7986 18.2368 46.7986 17.7432C46.7986 17.2496 46.3986 16.8496 45.905 16.8496H30.9814C30.4878 16.8496 30.0879 17.2496 30.0879 17.7432C30.0879 18.2368 30.4878 18.6367 30.9814 18.6367Z" fill="#12191F"></path>
  <path d="M30.9814 22.9697H45.905C46.3986 22.9697 46.7986 22.5698 46.7986 22.0762C46.7986 21.5826 46.3986 21.1826 45.905 21.1826H30.9814C30.4878 21.1826 30.0879 21.5826 30.0879 22.0762C30.0879 22.5698 30.4878 22.9697 30.9814 22.9697Z" fill="#12191F"></path>
  <path d="M22.8672 26.4082C22.8672 26.9018 23.2671 27.3018 23.7607 27.3018H45.9055C46.3991 27.3018 46.799 26.9018 46.799 26.4082C46.799 25.9146 46.3991 25.5146 45.9055 25.5146H23.7607C23.2671 25.5146 22.8672 25.9147 22.8672 26.4082Z" fill="#12191F"></path>
  <path d="M15.0947 27.3018H19.4274C19.921 27.3018 20.321 26.9018 20.321 26.4082C20.321 25.9146 19.921 25.5146 19.4274 25.5146H15.0947C14.6011 25.5146 14.2012 25.9146 14.2012 26.4082C14.2012 26.9018 14.6012 27.3018 15.0947 27.3018Z" fill="#12191F"></path>
  <path d="M27.1951 35.9785H24.7832C24.2896 35.9785 23.8896 36.3785 23.8896 36.8721V45.1755C23.8896 45.4132 23.9844 45.641 24.1528 45.8087C24.3202 45.9754 24.5469 46.069 24.7832 46.069H24.7871C24.7874 46.069 27.0051 46.0591 27.6163 46.0591C29.3413 46.0591 30.7449 44.6558 30.7449 42.9306C30.7449 41.9003 30.244 40.9851 29.4733 40.4146C29.8039 39.9545 29.9993 39.3911 29.9993 38.7826C29.9993 37.2365 28.7413 35.9785 27.1951 35.9785ZM27.1951 37.7656C27.7559 37.7656 28.2122 38.2219 28.2122 38.7827C28.2122 39.3435 27.7559 39.7997 27.1951 39.7997C27.0144 39.7997 26.6708 39.8008 26.2984 39.8021H25.6768V37.7656H27.1951ZM27.6163 44.2721C27.2615 44.2721 26.3673 44.2754 25.6768 44.2782V41.5917C25.8792 41.5909 26.0955 41.5901 26.3031 41.5893H27.6163C28.356 41.5893 28.9578 42.1911 28.9578 42.9309C28.9578 43.6704 28.356 44.2721 27.6163 44.2721Z" fill="#12191F"></path>
  <path d="M10.1728 40.2511C9.1297 39.8664 8.16037 39.4467 7.88766 39.3271C7.67761 39.166 7.57658 38.9138 7.61566 38.6412C7.64068 38.4673 7.76482 38.0428 8.37745 37.8582C9.62438 37.4827 10.7653 38.3887 10.7955 38.413C11.1734 38.727 11.7341 38.6773 12.0507 38.3008C12.3682 37.923 12.3195 37.3594 11.9417 37.0419C11.8657 36.9781 10.0565 35.4861 7.86204 36.147C6.77012 36.4761 5.99797 37.3345 5.84678 38.3873C5.70536 39.3718 6.13212 40.3186 6.96003 40.8584C6.99946 40.8842 7.04092 40.9067 7.08393 40.9259C7.13171 40.9472 8.27105 41.4544 9.55432 41.9276C9.95249 42.0745 10.8645 42.4944 10.7351 43.219C10.6418 43.7415 10.0206 44.2821 9.14257 44.2821C8.27713 44.2821 7.44291 43.9317 6.91118 43.3448C6.57961 42.9789 6.01465 42.9515 5.649 43.2827C5.28336 43.6141 5.25548 44.1791 5.58693 44.5449C6.45201 45.4995 7.78115 46.0693 9.14269 46.0693C10.8226 46.0693 12.2322 45.0028 12.4946 43.5333C12.6908 42.4329 12.1841 40.993 10.1728 40.2511Z" fill="#12191F"></path>
  <path d="M15.2139 35.9785C14.7203 35.9785 14.3203 36.3785 14.3203 36.8721V42.5857C14.3203 43.8031 14.8813 44.7532 16.0355 45.4908C16.6344 45.8736 17.3109 46.0682 18.046 46.0692H18.0517C18.6861 46.0692 19.2813 45.9314 19.8207 45.6597C21.5205 44.8036 21.8773 43.5124 21.8773 42.5798V36.8721C21.8773 36.3785 21.4773 35.9785 20.9837 35.9785C20.4901 35.9785 20.0902 36.3785 20.0902 36.8721V42.5798C20.0902 43.019 19.9683 43.5845 19.0168 44.0635C18.7291 44.2085 18.4043 44.2819 18.0516 44.2819C18.0505 44.2819 18.0493 44.2819 18.0483 44.2819C17.6535 44.2814 17.3099 44.1842 16.9978 43.9848C16.3655 43.5808 16.1075 43.1755 16.1075 42.5857V36.8721C16.1074 36.3786 15.7075 35.9785 15.2139 35.9785Z" fill="#12191F"></path>
  <path d="M60.9999 32.9603C60.9999 31.14 59.5195 29.6589 57.6997 29.6589H51.3718V0.893556C51.3718 0.399956 50.9718 0 50.4782 0H10.5215C10.0279 0 9.62793 0.399956 9.62793 0.893556V9.63766C9.62793 10.1313 10.0279 10.5312 10.5215 10.5312C11.0151 10.5312 11.415 10.1313 11.415 9.63766V1.78711H49.5846V29.6589H48.5323C48.0387 29.6589 47.6387 30.0589 47.6387 30.5525C47.6387 31.0461 48.0387 31.446 48.5323 31.446H57.6997C58.5341 31.446 59.2128 32.1254 59.2128 32.9603V47.8162L53.1747 45.6948C53.2797 45.5484 53.3423 45.3693 53.3423 45.1752V37.7654H54.7507C55.2443 37.7654 55.6443 37.3654 55.6443 36.8718C55.6443 36.3782 55.2443 35.9783 54.7507 35.9783H50.1651C49.6715 35.9783 49.2716 36.3782 49.2716 36.8718C49.2716 37.3654 49.6715 37.7654 50.1651 37.7654H51.5551V45.1257L47.2196 43.6023V36.8717C47.2196 36.3781 46.8197 35.9782 46.3261 35.9782C45.8325 35.9782 45.4325 36.3781 45.4325 36.8717V42.9745L43.3994 42.2601C43.2167 42.1959 43.023 42.196 42.8446 42.25L41.8113 36.8435C41.7134 36.3626 41.3027 36.0075 40.8127 35.9799C40.3228 35.9527 39.8751 36.2592 39.7235 36.7259C39.7203 36.7361 39.7171 36.7463 39.7142 36.7566L38.0903 42.453L36.407 36.7473C36.4039 36.7367 36.4005 36.7264 36.3971 36.7159C36.2409 36.2505 35.7902 35.948 35.2999 35.9811C34.8101 36.0139 34.4033 36.3736 34.3087 36.8658L32.8492 44.9517C32.7616 45.4373 33.0843 45.9021 33.5699 45.9898C34.055 46.0771 34.5204 45.7549 34.608 45.2691L35.538 40.1168L37.0673 45.3002C37.0704 45.3109 37.0738 45.3215 37.0773 45.332C37.2256 45.7733 37.6369 46.0689 38.1021 46.0689H38.1077C38.5751 46.0665 38.9861 45.7663 39.1304 45.3218C39.1338 45.3115 39.137 45.3012 39.14 45.2907L40.6166 40.1109L41.6041 45.2783C41.6967 45.7631 42.1658 46.0814 42.6495 45.9881C42.8214 45.9552 42.9716 45.8746 43.0907 45.7633L44.7902 50.6003H13.116C12.6224 50.6003 12.2225 51.0003 12.2225 51.4939C12.2225 51.9875 12.6224 52.3874 13.116 52.3874H45.418L48.2342 60.4027C48.3497 60.7313 48.6454 60.9628 48.9921 60.9959C49.0205 60.9987 49.0491 61 49.0775 61C49.3927 61 49.6875 60.8332 49.8488 60.5573L53.7983 53.7984L56.2131 52.3873H57.6997C59.5048 52.3873 60.9751 50.9306 60.9988 49.1217C60.9988 49.1213 60.9988 49.1209 60.9988 49.1206C60.999 49.1062 60.9999 49.092 60.9999 49.0776V32.9603ZM52.6943 52.3738C52.5616 52.4514 52.4512 52.5618 52.3736 52.6945L49.2802 57.9884L44.5632 44.5634L57.9882 49.2804L52.6943 52.3738Z" fill="#12191F"></path>
  <path d="M8.94522 50.6006H3.3002C2.46586 50.6006 1.78711 49.9218 1.78711 49.0875V32.9606C1.78711 32.1255 2.46586 31.4463 3.3002 31.4463H44.3544C44.848 31.4463 45.2479 31.0463 45.2479 30.5527C45.2479 30.0591 44.848 29.6592 44.3544 29.6592H11.4152V13.8125C11.4152 13.3189 11.0153 12.9189 10.5217 12.9189C10.0281 12.9189 9.62813 13.3189 9.62813 13.8125V29.6592H3.3002C1.48044 29.6592 0 31.1402 0 32.9606V49.0875C0 50.9072 1.48044 52.3877 3.3002 52.3877H8.94522C9.43882 52.3877 9.83877 51.9877 9.83877 51.4941C9.83877 51.0005 9.43882 50.6006 8.94522 50.6006Z" fill="#12191F"></path>
</svg>