<?xml version="1.0" standalone="no"?>
<!DOCTYPE svg PUBLIC "-//W3C//DTD SVG 20010904//EN"
 "http://www.w3.org/TR/2001/REC-SVG-20010904/DTD/svg10.dtd">
<svg version="1.0" xmlns="http://www.w3.org/2000/svg"
 width="200.000000pt" height="200.000000pt" viewBox="0 0 200.000000 200.000000"
 preserveAspectRatio="xMidYMid meet">
<metadata>
Created by potrace 1.14, written by Peter Selinger 2001-2017
</metadata>
<g transform="translate(0.000000,200.000000) scale(0.100000,-0.100000)"
fill="#000000" stroke="none">
<path d="M760 1935 c-36 -7 -85 -17 -109 -24 -24 -7 -96 -14 -160 -16 -118 -3
-142 -6 -221 -32 -174 -56 -253 -215 -203 -408 l18 -70 -24 -80 c-30 -101 -39
-315 -16 -410 14 -59 14 -60 -15 -119 -34 -67 -37 -88 -14 -110 21 -22 50 -20
74 4 20 20 20 20 36 -13 74 -142 219 -291 364 -371 19 -11 62 -40 95 -64 199
-147 419 -195 664 -147 57 11 169 61 237 107 179 120 293 316 318 547 6 54 13
71 46 110 49 59 103 152 125 216 35 105 29 237 -16 326 -58 117 -199 233 -371
305 -33 14 -87 47 -121 73 -94 74 -243 146 -342 165 -16 4 -41 9 -55 12 -48
11 -246 11 -310 -1z m-230 -65 c0 -5 -10 -12 -22 -16 -13 -3 -30 -13 -40 -21
-9 -8 -36 -17 -60 -19 -97 -11 -148 -31 -197 -77 -122 -116 -87 -312 110 -608
207 -310 516 -482 860 -480 176 1 301 35 474 128 48 26 148 133 188 201 125
214 75 418 -135 549 -41 26 -150 143 -133 143 4 0 38 -16 77 -37 311 -163 405
-401 261 -663 -101 -185 -255 -298 -482 -355 -97 -25 -145 -30 -271 -29 -335
2 -638 161 -854 449 -82 109 -169 268 -210 385 -24 68 -30 187 -11 239 29 82
97 152 175 181 83 30 270 51 270 30z m545 -25 c93 -18 235 -81 315 -140 64
-47 161 -151 202 -215 78 -124 119 -255 124 -395 3 -105 -20 -251 -43 -277
-19 -21 -168 -98 -189 -98 -9 0 -4 18 16 63 98 210 84 443 -40 629 -57 87
-112 141 -199 197 -131 84 -319 117 -476 84 -187 -39 -362 -174 -442 -343 -23
-47 -45 -96 -50 -109 -8 -21 -13 -16 -51 62 -23 47 -42 92 -42 99 0 22 63 125
110 181 153 182 382 281 630 272 58 -2 119 -7 135 -10z m-768 -137 c-47 -46
-99 -105 -116 -132 l-31 -50 0 38 c0 103 56 176 162 212 35 12 65 20 67 18 1
-1 -35 -40 -82 -86z m1486 -278 c90 -99 119 -203 88 -318 -11 -38 -53 -125
-70 -144 -4 -4 -6 32 -5 80 3 142 -28 282 -90 404 l-34 68 30 -18 c17 -9 53
-42 81 -72z m-833 -69 c0 -38 2 -40 38 -46 54 -9 66 -19 58 -48 -6 -24 -6 -24
-51 -10 -78 26 -147 -3 -147 -62 0 -36 18 -53 95 -91 87 -42 96 -50 118 -98
20 -45 16 -89 -13 -128 -20 -29 -66 -58 -91 -58 -9 0 -13 -11 -12 -34 2 -43
-7 -59 -31 -54 -15 3 -19 11 -18 41 2 39 5 37 -68 52 -39 7 -57 27 -48 52 9
21 11 22 44 8 43 -18 125 -19 147 -2 39 30 44 84 11 120 -9 11 -50 35 -90 54
-82 39 -112 75 -112 135 0 44 38 94 87 114 30 13 33 18 33 54 0 36 3 40 25 40
22 0 25 -4 25 -39z m-732 -249 c31 -48 44 -80 47 -114 3 -27 3 -48 2 -48 -2 0
-25 7 -51 16 -26 9 -58 14 -72 11 -13 -2 -27 -1 -30 4 -6 11 -6 155 1 194 15
84 15 84 38 42 12 -21 41 -68 65 -105z m62 -187 c109 -38 130 -49 130 -71 0
-30 -34 -33 -105 -8 -39 14 -75 23 -82 22 -18 -4 89 -213 165 -325 72 -104
210 -241 295 -292 135 -80 254 -111 407 -106 281 9 502 179 589 453 25 76 53
132 80 156 20 18 20 18 15 -25 -12 -99 -39 -191 -87 -289 -40 -81 -166 -212
-254 -263 -266 -154 -583 -133 -840 56 -161 119 -313 321 -412 545 l-29 65
-33 -64 c-19 -35 -37 -72 -41 -82 -11 -26 -37 -32 -56 -13 -15 15 -13 24 37
124 67 136 78 152 99 152 10 0 65 -16 122 -35z m4 -91 c9 -3 30 -32 46 -63
138 -258 415 -393 701 -341 85 16 164 49 246 103 46 31 87 49 128 57 33 7 88
22 122 35 69 25 69 25 2 -60 -187 -238 -516 -349 -813 -274 -76 19 -93 28
-144 73 -102 90 -200 222 -271 364 -56 110 -57 121 -17 106z m1326 -351 c-68
-138 -227 -260 -392 -302 -80 -20 -206 -26 -253 -12 -28 9 -27 9 16 10 123 2
332 81 452 170 67 49 160 141 184 181 31 54 26 21 -7 -47z"/>
</g>
</svg>
